<?xml version="1.0" encoding="UTF-8"?>
<svg id="Calque_1" xmlns="http://www.w3.org/2000/svg" width="481.1mm" height="173.5mm" version="1.1" viewBox="0 0 1363.8 492">
  <!-- Generator: Adobe Illustrator 29.6.0, SVG Export Plug-In . SVG Version: 2.1.1 Build 207)  -->
  <defs>
    <style>
      .st0 {
        fill: #f39a8b;
      }

      .st1 {
        fill: #005468;
      }

      .st2 {
        fill: #fff;
      }
    </style>
  </defs>
  <path class="st1" d="M187.2,159.1v20.8c0,16.1-4.3,28.3-12.3,36.4s-19.4,12.3-34,12.3-25.5-4.3-34-12.3c-8-8.5-12.3-20.3-12.3-36.4v-75.6c0-16.1,4.3-27.9,12.3-36.4,8-8.5,19.8-12.3,34-12.3s25.5,4.3,34,12.3c8,8,12.3,20.3,12.3,36.4v49.1h-49.1v33.5c0,3.8.9,5.7,2.8,5.7s2.8-1.9,2.8-5.7v-27.4h43.5v-.5ZM144.2,97.2c0-3.8-.9-5.7-2.8-5.7s-2.8,1.9-2.8,5.7v25h6.1v-25h-.5Z"/>
  <path class="st1" d="M301.9,35.3v24.6h14.2v36.4h-14.2v87.8c0,.9.5,1.9,1.4,2.4s2.4.9,4.3,1.4h8v36.4c-11.3,0-20.8,0-28.3-.9s-13.2-2.4-17.5-4.7-7.1-6.6-9-11.3c-1.9-5.2-2.4-12.3-2.4-21.3v-89.3h-9v-36.4h9v-24.6h43.5v-.5Z"/>
  <path class="st1" d="M418.1,159.1v20.8c0,16.1-4.3,28.3-12.3,36.4-8,8.5-19.4,12.3-34,12.3s-25.5-4.3-34-12.3c-8-8.5-12.3-20.3-12.3-36.4v-75.6c0-16.1,4.3-27.9,12.3-36.4,8-8.5,19.8-12.3,34-12.3s25.5,4.3,34,12.3,12.3,20.3,12.3,36.4v49.1h-49.1v33.5c0,3.8.9,5.7,2.8,5.7s2.8-1.9,2.8-5.7v-27.4h43.5v-.5ZM374.7,97.2c0-3.8-.9-5.7-2.8-5.7s-2.8,1.9-2.8,5.7v25h6.1v-25h-.5Z"/>
  <rect class="st1" x="429.9" y="59.9" width="43.5" height="164.4"/>
  <rect class="st1" x="485.6" y="9.4" width="43.5" height="466.6"/>
  <polygon class="st1" points="288.7 474.1 267 310.2 312.8 310.2 314.2 391.4 314.7 413.6 316.6 413.6 317.5 391.4 318.9 310.2 364.7 310.2 343 474.1 288.7 474.1"/>
  <rect class="st1" x="372.3" y="310.2" width="43.5" height="164.4"/>
  <rect class="st1" x="427.5" y="260.1" width="43.5" height="213.9"/>
  <path class="st1" d="M631.1,409.4v20.8c0,16.1-4.3,28.3-12.3,36.4-8,8.5-19.4,12.3-34,12.3s-25.5-4.3-34-12.3c-8-8.5-12.3-20.3-12.3-36.4v-75.6c0-16.1,4.3-27.9,12.3-36.4,8-8.5,19.8-12.3,34-12.3s25.5,4.3,34,12.3c8,8,12.3,20.3,12.3,36.4v49.1h-49.1v33.5c0,3.8.9,5.7,2.8,5.7s2.8-1.9,2.8-5.7v-27.4h43.5v-.5ZM587.7,347.5c0-3.8-.9-5.7-2.8-5.7s-2.8,1.9-2.8,5.7v25h6.1v-25h-.5Z"/>
  <path class="st1" d="M686.4,310.2v126.6c0,3.8.9,5.7,2.8,5.7s2.8-1.9,2.8-5.7v-126.6h43.5v164.4h-34l-5.2-16.5h-1.4c-2.4,6.6-5.7,11.8-9.9,15.6s-9.4,5.7-15.1,5.7c-8.5,0-15.1-4.3-19.8-12.8-4.7-8.5-7.1-20.8-7.1-36.4v-120h43.5Z"/>
  <path class="st1" d="M785.1,310.2l2.8,28.8h.5c0-7.1.5-12.8,1.9-16.5,1.4-3.8,2.8-6.6,5.7-8.5s5.7-2.8,9.4-3.3,8.5-.5,14.2-.5v45.8h-12.8c-3.3,0-6.6.9-9,1.9-2.4.9-4.3,2.8-5.2,5.2s-1.4,5.7-1.4,9.9v101.1h-43.5v-164.4h37.3v.5Z"/>
  <path class="st1" d="M923,429.7c0,15.6-2.4,27.9-7.1,36.4s-11.3,12.8-19.8,12.8-10.9-1.9-15.1-5.7-7.6-9-9.9-15.6h-1.4l-5.2,16.5h-34v-213h43.5v64.7h1.4c3.8-13.7,11.3-20.8,21.7-20.8s15.1,4.3,19.4,12.3c4.3,8.5,6.6,20.3,6.6,36.4v75.6h0v.5ZM876.7,442.4c1.9,0,2.8-1.9,2.8-5.7v-89.3c0-3.8-.9-5.7-2.8-5.7s-2.8,1.9-2.8,5.7v89.3c0,3.8.9,5.7,2.8,5.7"/>
  <path class="st1" d="M993.3,474.1l-4.3-20.8h-1.4c-.9,2.8-2.4,6.1-4.3,9s-3.8,5.7-6.1,8-4.7,4.3-7.6,6.1c-2.8,1.4-6.1,2.4-9.4,2.4-7.6,0-13.7-4.3-18.4-12.8-4.7-8.5-7.1-20.8-7.1-36.4v-9.4c0-16.1,2.4-27.9,6.6-36.4,4.3-8.5,10.9-12.3,19.4-12.3s17.9,7.1,21.7,20.8h1.4v-44.9c0-3.8-.9-5.7-2.8-5.7s-2.8,1.9-2.8,5.7v18.4h-43.5v-11.3c0-16.1,4.3-28.3,12.3-36.4,8-8.5,19.4-12.3,34-12.3s26,4.3,34.5,12.3c8,8.5,12.3,20.3,12.3,36.4v120h-34l-.5-.5ZM981.1,442.4c1.9,0,2.8-1.9,2.8-5.7v-22.7c0-3.8-.9-5.7-2.8-5.7s-2.8,1.9-2.8,5.7v22.7c0,3.8.9,5.7,2.8,5.7"/>
  <path class="st1" d="M1088.8,474.1v-126.6c0-3.8-.9-5.7-2.8-5.7s-2.8,1.9-2.8,5.7v126.6h-43.5v-164.4h34l5.2,16.5h1.4c2.4-6.6,5.7-11.8,9.9-15.6,4.3-3.8,9.4-5.7,15.1-5.7,8.5,0,15.1,4.3,19.8,12.8,4.7,8.5,7.1,20.8,7.1,36.4v120h-43.5Z"/>
  <path class="st1" d="M1193.6,474.1v-126.6c0-3.8-.9-5.7-2.8-5.7s-2.8,1.9-2.8,5.7v126.6h-43.5v-164.4h34l5.2,16.5h1.4c2.4-6.6,5.7-11.8,9.9-15.6s9.4-5.7,15.1-5.7c8.5,0,15.1,4.3,19.8,12.8,4.7,8.5,7.1,20.8,7.1,36.4v120h-43.5Z"/>
  <path class="st1" d="M1341.4,409.4v20.8c0,16.1-4.3,28.3-12.3,36.4-8,8.5-19.4,12.3-34,12.3s-25.5-4.3-34-12.3c-8-8.5-12.3-20.3-12.3-36.4v-75.6c0-16.1,4.3-27.9,12.3-36.4,8-8.5,19.8-12.3,34-12.3s25.5,4.3,34,12.3c8,8,12.3,20.3,12.3,36.4v49.1h-49.1v33.5c0,3.8.9,5.7,2.8,5.7s2.8-1.9,2.8-5.7v-27.4h43.5v-.5ZM1298.4,347.5c0-3.8-.9-5.7-2.8-5.7s-2.8,1.9-2.8,5.7v25h6.1v-25h-.5Z"/>
  <path class="st0" d="M565.5,49h6.1l8,68h-4.7l-1.9-17.9v-1.4l-3.8-33.5-.9-12.8h.5l-.9,12.8-3.8,33.5v1.4l-1.9,17.9h-5.2l8-68h.5ZM561.7,96.3h13.7v4.3h-13.7v-4.3Z"/>
  <path class="st0" d="M586.7,115.6c-1.9-1.9-2.8-4.3-2.8-8v-16.5h4.7v17c0,1.9.5,3.3,1.4,4.3.9.9,2.4,1.4,3.8,1.4h0c1.4,0,2.8-.5,3.8-1.4.9-.9,1.4-2.4,1.4-4.3v-8.5c0-3.3-.5-6.1-1.4-8.5s-2.8-4.7-4.7-7.6h-.5c-1.9-2.8-3.3-4.7-4.3-6.6-.9-1.9-1.9-3.8-2.8-6.1-.5-2.4-.9-5.2-.9-8v-4.3c0-3.8.9-6.1,2.8-8,1.9-1.9,4.3-2.8,7.1-2.8h0c2.8,0,5.2.9,7.1,2.8s2.8,4.3,2.8,8v12.3h-4.7v-12.8c0-1.9-.5-3.3-1.4-4.3s-1.9-1.4-3.8-1.4h0c-1.4,0-2.8.5-3.8,1.4-.9.9-1.4,2.4-1.4,4.3v4.7c0,2.4,0,4.7.5,6.6s1.4,3.3,1.9,4.7,1.9,2.8,3.8,5.2h0v.9c1.9,2.4,3.3,4.3,4.3,6.1s1.9,3.8,2.8,6.1c.5,2.4.9,4.7.9,7.6v8c0,3.8-.9,6.1-2.8,8-1.9,1.9-4.3,2.8-7.1,2.8h0c-2.8,0-5.2-.9-7.1-2.8"/>
  <path class="st0" d="M613.2,115.6c-1.9-1.9-2.8-4.3-2.8-8v-16.5h4.7v17c0,1.9.5,3.3,1.4,4.3.9.9,2.4,1.4,3.8,1.4h0c1.4,0,2.8-.5,3.8-1.4.9-.9,1.4-2.4,1.4-4.3v-8.5c0-3.3-.5-6.1-1.4-8.5s-2.8-4.7-4.7-7.6h-.5c-1.9-2.8-3.3-4.7-4.3-6.6s-1.9-3.8-2.8-6.1c-.5-2.4-.9-5.2-.9-8v-4.3c0-3.8.9-6.1,2.8-8,1.9-1.9,4.3-2.8,7.1-2.8h0c2.8,0,5.2.9,7.1,2.8s2.8,4.3,2.8,8v12.3h-5.2v-12.8c0-1.9-.5-3.3-1.4-4.3s-1.9-1.4-3.8-1.4h0c-1.4,0-2.8.5-3.8,1.4s-1.4,2.4-1.4,4.3v4.7c0,2.4,0,4.7.5,6.6s1.4,3.3,1.9,4.7,1.9,2.8,3.8,5.2h0v.9c1.9,2.4,3.3,4.3,4.3,6.1s1.9,3.8,2.8,6.1c.5,2.4.9,4.7.9,7.6v8c0,3.8-.9,6.1-2.8,8-1.9,1.9-4.3,2.8-7.1,2.8h0c-2.8,0-5.2-.9-7.1-2.8"/>
  <path class="st0" d="M640.1,115.6c-1.9-1.9-2.8-4.3-2.8-8v-48.6c0-3.8.9-6.1,2.8-8,1.9-1.9,4.3-2.8,7.1-2.8h0c2.8,0,5.2.9,7.1,2.8,1.9,1.9,2.8,4.3,2.8,8v48.6c0,3.8-.9,6.1-2.8,8-1.9,1.9-4.3,2.8-7.1,2.8h0c-2.8,0-5.2-.9-7.1-2.8M651.4,112.3c.9-.9,1.4-2.4,1.4-4.3v-49.6c0-1.9-.5-3.3-1.4-4.3s-2.4-1.4-3.8-1.4h0c-1.4,0-2.8.5-3.8,1.4s-1.4,2.4-1.4,4.3v49.6c0,1.9.5,3.3,1.4,4.3s2.4,1.4,3.8,1.4h0c1.4,0,2.8-.5,3.8-1.4"/>
  <path class="st0" d="M667.9,115.6c-1.9-1.9-2.8-4.3-2.8-8v-48.6c0-3.8.9-6.1,2.8-8,1.9-1.9,4.3-2.8,7.1-2.8h0c2.8,0,5.2.9,7.1,2.8s2.8,4.3,2.8,8v12.3h-4.7v-12.8c0-1.9-.5-3.3-1.4-4.3s-1.9-1.4-3.8-1.4h0c-1.4,0-2.8.5-3.8,1.4s-1.4,2.4-1.4,4.3v50.1c0,1.9.5,3.3,1.4,4.3.9.9,2.4,1.4,3.8,1.4h0c1.4,0,2.8-.5,3.8-1.4.9-.9,1.4-2.4,1.4-4.3v-17h4.7v16.5c0,3.8-.9,6.1-2.8,8-1.9,1.9-4.3,2.8-7.1,2.8h0c-2.8,0-5.2-.9-7.1-2.8"/>
  <rect class="st0" x="691.6" y="49" width="4.7" height="68"/>
  <path class="st0" d="M710,49h6.1l8,68h-5.2l-1.9-17.9v-1.4l-3.8-33.5-.9-12.8h.5l-.9,12.8-3.8,33.5v1.4l-1.9,17.9h-4.7l8-68h.5ZM706.2,96.3h13.7v4.3h-13.7v-4.3Z"/>
  <polygon class="st0" points="732.6 51.4 734.5 53.3 723.7 53.3 723.7 49 746.3 49 746.3 53.3 735.5 53.3 737.4 51.4 737.4 117 732.6 117 732.6 51.4"/>
  <rect class="st0" x="750.6" y="49" width="4.7" height="68"/>
  <path class="st0" d="M765.7,115.6c-1.9-1.9-2.8-4.3-2.8-8v-48.6c0-3.8.9-6.1,2.8-8,1.9-1.9,4.3-2.8,7.1-2.8h0c2.8,0,5.2.9,7.1,2.8,1.9,1.9,2.8,4.3,2.8,8v48.6c0,3.8-.9,6.1-2.8,8-1.9,1.9-4.3,2.8-7.1,2.8h0c-2.8,0-5.2-.9-7.1-2.8M777,112.3c.9-.9,1.4-2.4,1.4-4.3v-49.6c0-1.9-.5-3.3-1.4-4.3s-2.4-1.4-3.8-1.4h0c-1.4,0-2.8.5-3.8,1.4s-1.4,2.4-1.4,4.3v49.6c0,1.9.5,3.3,1.4,4.3s2.4,1.4,3.8,1.4h0c1.4,0,2.8-.5,3.8-1.4"/>
  <polygon class="st0" points="790.3 49 796.9 49 804 86.3 807.7 111.8 807.3 111.8 806.8 86.3 806.8 49 811.5 49 811.5 117 805.4 117 797.8 79.7 794 54.2 794.5 54.2 795 79.7 795 117 790.3 117 790.3 49"/>
  <path class="st0" d="M831.4,49h9c3.8,0,6.6.9,8.5,2.8,1.9,1.9,2.8,4.3,2.8,8v16.1c0,3.8-.9,6.1-2.8,8-1.9,1.9-4.7,2.8-8.5,2.8h-5.7l1.9-1.9v32.1h-4.7V49h-.5ZM834.7,82.1h6.1c3.8,0,6.1-1.9,6.1-5.7v-17.5c0-3.8-1.9-5.7-6.1-5.7h-6.1l1.9-1.9v32.6l-1.9-1.9Z"/>
  <path class="st0" d="M859.2,115.6c-1.9-1.9-2.8-4.3-2.8-8v-48.6c0-3.8.9-6.1,2.8-8,1.9-1.9,4.3-2.8,7.1-2.8h0c2.8,0,5.2.9,7.1,2.8,1.9,1.9,2.8,4.3,2.8,8v48.6c0,3.8-.9,6.1-2.8,8-1.9,1.9-4.3,2.8-7.1,2.8h0c-2.8,0-5.2-.9-7.1-2.8M870.6,112.3c.9-.9,1.4-2.4,1.4-4.3v-49.6c0-1.9-.5-3.3-1.4-4.3s-2.4-1.4-3.8-1.4h0c-1.4,0-2.8.5-3.8,1.4s-1.4,2.4-1.4,4.3v49.6c0,1.9.5,3.3,1.4,4.3s2.4,1.4,3.8,1.4h0c1.4,0,2.8-.5,3.8-1.4"/>
  <path class="st0" d="M886.6,115.6c-1.9-1.9-2.8-4.3-2.8-8v-58.6h4.7v59c0,1.9.5,3.3,1.4,4.3.9.9,2.4,1.4,3.8,1.4h0c1.4,0,2.8-.5,3.8-1.4.9-.9,1.4-2.4,1.4-4.3v-59h5.2v58.6c0,3.8-.9,6.1-2.8,8-1.9,1.9-4.3,2.8-7.1,2.8h0c-2.8,0-5.2-.9-7.1-2.8"/>
  <path class="st0" d="M921.1,82.6h-7.6v-4.3h7.1c3.8,0,6.1-1.9,6.1-5.7v-13.2c0-3.8-1.9-5.7-6.1-5.7h-6.1l2.4-2.4v66.1h-4.7V49.5h9c3.8,0,6.6.9,8.5,2.8,1.9,1.9,2.8,4.3,2.8,8v12.3c0,2.4-.5,4.7-1.9,6.1-.9,1.4-2.8,2.8-5.7,3.3v-1.9c2.8.5,4.7,1.9,6.1,3.3s1.9,3.8,1.9,6.6v28.3h-4.7v-28.8c0-3.8-1.9-5.7-6.1-5.7"/>
  <polygon class="st0" points="951.8 49 956.5 49 956.5 114.7 954.6 112.8 969.3 112.8 969.3 117 951.8 117 951.8 49"/>
  <polygon class="st0" points="973.5 49 991 49 991 53.3 976.8 53.3 978.7 51.4 978.7 80.2 976.3 78.3 988.6 78.3 988.6 82.6 976.3 82.6 978.7 80.7 978.7 114.7 976.3 112.8 991.5 112.8 991.5 117 973.5 117 973.5 49"/>
  <path class="st0" d="M1009.4,49h9.4c3.8,0,6.6.9,8.5,2.8,1.9,1.9,2.8,4.3,2.8,8v46.8c0,3.8-.9,6.1-2.8,8-1.9,1.9-4.7,2.8-8.5,2.8h-9.4V49ZM1012.2,112.8h6.6c1.9,0,3.3-.5,4.3-1.4.9-.9,1.4-2.4,1.4-4.3v-47.7c0-1.9-.5-3.3-1.4-4.3s-2.4-1.4-4.3-1.4h-6.6l2.4-1.9v63.3l-2.4-1.9h0v-.5Z"/>
  <path class="st0" d="M1037.3,49h17.5v4.3h-14.2l1.9-1.9v28.3l-1.9-1.9h11.8v4.3h-11.8l1.9-1.9v34l-1.9-1.9h15.1v4.3h-17.9V48.6l-.5.5ZM1048.1,36.8h6.6l-6.6,6.6h-5.2l5.2-6.6Z"/>
  <polygon class="st0" points="1057.6 49 1062.8 49 1068.4 101.9 1069.4 114.7 1068.4 114.7 1069.4 101.9 1075.1 49 1080.3 49 1071.7 117 1065.6 117 1057.6 49"/>
  <polygon class="st0" points="1085 49 1102.4 49 1102.4 53.3 1088.3 53.3 1090.2 51.4 1090.2 80.2 1088.3 78.3 1099.6 78.3 1099.6 82.6 1088.3 82.6 1090.2 80.7 1090.2 114.7 1088.3 112.8 1102.9 112.8 1102.9 117 1085 117 1085 49"/>
  <polygon class="st0" points="1108.6 49 1113.8 49 1113.8 114.7 1111.9 112.8 1126.1 112.8 1126.1 117 1108.6 117 1108.6 49"/>
  <path class="st0" d="M1132.2,115.6c-1.9-1.9-2.8-4.3-2.8-8v-48.6c0-3.8.9-6.1,2.8-8,1.9-1.9,4.3-2.8,7.1-2.8h0c2.8,0,5.2.9,7.1,2.8,1.9,1.9,2.8,4.3,2.8,8v48.6c0,3.8-.9,6.1-2.8,8-1.9,1.9-4.3,2.8-7.1,2.8h0c-2.8,0-5.2-.9-7.1-2.8M1143.5,112.3c.9-.9,1.4-2.4,1.4-4.3v-49.6c0-1.9-.5-3.3-1.4-4.3s-2.4-1.4-3.8-1.4h0c-1.4,0-2.8.5-3.8,1.4s-1.4,2.4-1.4,4.3v49.6c0,1.9.5,3.3,1.4,4.3s2.4,1.4,3.8,1.4h0c1.4,0,2.8-.5,3.8-1.4"/>
  <path class="st0" d="M1157.2,49h9c3.8,0,6.6.9,8.5,2.8,1.9,1.9,2.8,4.3,2.8,8v16.1c0,3.8-.9,6.1-2.8,8-1.9,1.9-4.7,2.8-8.5,2.8h-5.7l1.9-1.9v32.1h-4.7V49h-.5ZM1160.1,82.1h6.1c3.8,0,6.1-1.9,6.1-5.7v-17.5c0-3.8-1.9-5.7-6.1-5.7h-6.1l1.9-1.9v32.6l-1.9-1.9Z"/>
  <path class="st0" d="M1182.7,49h9c3.8,0,6.6.9,8.5,2.8,1.9,1.9,2.8,4.3,2.8,8v16.1c0,3.8-.9,6.1-2.8,8-1.9,1.9-4.7,2.8-8.5,2.8h-5.7l1.9-1.9v32.1h-4.7V49h-.5ZM1186,82.1h6.1c3.8,0,6.1-1.9,6.1-5.7v-17.5c0-3.8-1.9-5.7-6.1-5.7h-6.1l1.9-1.9v32.6l-1.9-1.9Z"/>
  <polygon class="st0" points="1208.2 49 1225.7 49 1225.7 53.3 1211.5 53.3 1213.4 51.4 1213.4 80.2 1211.5 78.3 1223.4 78.3 1223.4 82.6 1211.5 82.6 1213.4 80.7 1213.4 114.7 1211.5 112.8 1226.2 112.8 1226.2 117 1208.2 117 1208.2 49"/>
  <polygon class="st0" points="1231.9 49 1238.9 49 1245.6 100 1246 114.2 1246 114.2 1246.5 100 1253.1 49 1260.2 49 1260.2 117 1255.5 117 1255.5 80.2 1255.5 55.6 1255.9 55.6 1253.1 80.2 1248.4 117 1243.7 117 1238.9 80.2 1236.1 55.6 1236.6 55.6 1236.6 80.2 1236.6 117 1231.9 117 1231.9 49"/>
  <polygon class="st0" points="1267.3 49 1285.2 49 1285.2 53.3 1270.6 53.3 1272.5 51.4 1272.5 80.2 1270.6 78.3 1282.4 78.3 1282.4 82.6 1270.6 82.6 1272.5 80.7 1272.5 114.7 1270.6 112.8 1285.7 112.8 1285.7 117 1267.3 117 1267.3 49"/>
  <polygon class="st0" points="1290.9 49 1297.5 49 1304.6 86.3 1308.4 111.8 1307.9 111.8 1307.4 86.3 1307.4 49 1312.1 49 1312.1 117 1306 117 1298.4 79.7 1294.7 54.2 1295.1 54.2 1295.6 79.7 1295.6 117 1290.9 117 1290.9 49"/>
  <polygon class="st0" points="1324.9 51.4 1326.8 53.3 1316.4 53.3 1316.4 49 1339.1 49 1339.1 53.3 1328.2 53.3 1330.1 51.4 1330.1 117 1324.9 117 1324.9 51.4"/>
  <path class="st0" d="M559.8,149.6h9.4c3.8,0,6.6.9,8.5,2.8s2.8,4.3,2.8,8v46.8c0,3.8-.9,6.1-2.8,8s-4.7,2.8-8.5,2.8h-9.4v-68.5ZM562.6,213.4h6.6c1.9,0,3.3-.5,4.3-1.4.9-.9,1.4-2.4,1.4-4.3v-47.7c0-1.9-.5-3.3-1.4-4.3-.9-.9-2.4-1.4-4.3-1.4h-6.6l2.4-1.9v63.3l-2.4-1.9h0v-.5Z"/>
  <polygon class="st0" points="587.7 149.6 605.1 149.6 605.1 153.9 590.5 153.9 592.4 152.5 592.4 180.8 590.5 178.9 602.3 178.9 602.3 183.2 590.5 183.2 592.4 181.3 592.4 215.3 590.5 213.4 605.6 213.4 605.6 217.6 587.7 217.6 587.7 149.6"/>
  <path class="st0" d="M613.2,216.2c-1.9-1.9-2.8-4.3-2.8-8v-16.5h4.7v17c0,1.9.5,3.3,1.4,4.3s2.4,1.4,3.8,1.4h0c1.4,0,2.8-.5,3.8-1.4s1.4-2.4,1.4-4.3v-8.5c0-3.3-.5-6.1-1.4-8.5s-2.8-4.7-4.7-7.6h-.5c-1.9-2.8-3.3-4.7-4.3-6.6s-1.9-3.8-2.8-6.1c-.5-2.4-.9-5.2-.9-8v-4.3c0-3.8.9-6.1,2.8-8,1.9-1.9,4.3-2.8,7.1-2.8h0c2.8,0,5.2.9,7.1,2.8s2.8,4.3,2.8,8v12.3h-4.7v-12.8c0-1.9-.5-3.3-1.4-4.3s-1.9-1.4-3.8-1.4h0c-1.4,0-2.8.5-3.8,1.4s-1.4,2.4-1.4,4.3v4.7c0,2.4,0,4.7.5,6.6s1.4,3.3,1.9,4.7,1.9,2.8,3.8,5.2h0v.9c1.9,2.4,3.3,4.3,4.3,6.1.9,1.9,1.9,3.8,2.8,6.1s.9,4.7.9,7.6v8c0,3.8-.9,6.1-2.8,8-1.9,1.9-4.3,2.8-7.1,2.8h0c-2.8,0-5.2-.9-7.1-2.8"/>
  <path class="st0" d="M651.9,216.2c-1.9-1.9-2.8-4.3-2.8-8v-48.6c0-3.8.9-6.1,2.8-8,1.9-1.9,4.3-2.8,7.1-2.8h0c2.8,0,5.2.9,7.1,2.8s2.8,4.3,2.8,8v12.3h-4.7v-12.8c0-1.9-.5-3.3-1.4-4.3s-1.9-1.4-3.8-1.4h0c-1.4,0-2.8.5-3.8,1.4s-1.4,2.4-1.4,4.3v50.1c0,1.9.5,3.3,1.4,4.3s2.4,1.4,3.8,1.4h0c1.4,0,2.8-.5,3.8-1.4s1.4-2.4,1.4-4.3v-17h4.7v16.5c0,3.8-.9,6.1-2.8,8-1.9,1.9-4.3,2.8-7.1,2.8h0c-2.8,0-5.2-.9-7.1-2.8"/>
  <path class="st0" d="M678.3,216.2c-1.9-1.9-2.8-4.3-2.8-8v-48.6c0-3.8.9-6.1,2.8-8,1.9-1.9,4.3-2.8,7.1-2.8h0c2.8,0,5.2.9,7.1,2.8,1.9,1.9,2.8,4.3,2.8,8v48.6c0,3.8-.9,6.1-2.8,8s-4.3,2.8-7.1,2.8h0c-2.8,0-5.2-.9-7.1-2.8M689.7,212.9c.9-.9,1.4-2.4,1.4-4.3v-49.6c0-1.9-.5-3.3-1.4-4.3s-2.4-1.4-3.8-1.4h0c-1.4,0-2.8.5-3.8,1.4s-1.4,2.4-1.4,4.3v49.6c0,1.9.5,3.3,1.4,4.3s2.4,1.4,3.8,1.4h0c1.4,0,2.8-.5,3.8-1.4"/>
  <path class="st0" d="M706.2,216.2c-1.9-1.9-2.8-4.3-2.8-8v-48.6c0-3.8.9-6.1,2.8-8,1.9-1.9,4.3-2.8,7.1-2.8h0c2.8,0,5.2.9,7.1,2.8,1.9,1.9,2.8,4.3,2.8,8v48.6c0,3.8-.9,6.1-2.8,8s-4.3,2.8-7.1,2.8h0c-2.8,0-5.2-.9-7.1-2.8M717.5,212.9c.9-.9,1.4-2.4,1.4-4.3v-49.6c0-1.9-.5-3.3-1.4-4.3s-2.4-1.4-3.8-1.4h0c-1.4,0-2.8.5-3.8,1.4s-1.4,2.4-1.4,4.3v49.6c0,1.9.5,3.3,1.4,4.3s2.4,1.4,3.8,1.4h0c1.4,0,2.8-.5,3.8-1.4"/>
  <path class="st0" d="M730.8,149.6h9c3.8,0,6.6.9,8.5,2.8,1.9,1.9,2.8,4.3,2.8,8v16.1c0,3.8-.9,6.1-2.8,8s-4.7,2.8-8.5,2.8h-5.7l1.9-1.9v32.1h-4.7v-68h-.5ZM734.1,182.7h6.1c3.8,0,6.1-1.9,6.1-5.7v-17.5c0-3.8-1.9-5.7-6.1-5.7h-6.1l1.9-1.9v32.6s-1.9-1.9-1.9-1.9Z"/>
  <path class="st0" d="M756.7,149.6h17.5v4.3h-14.2l1.9-1.9v28.3l-1.9-1.9h11.8v4.3h-11.8l1.9-1.9v34l-1.9-1.9h15.1v4.3h-17.9v-68l-.5.5ZM767.1,137.3h6.6l-6.6,6.6h-5.2l5.2-6.6Z"/>
  <path class="st0" d="M789.8,183.2h-7.6v-4.3h7.1c3.8,0,6.1-1.9,6.1-5.7v-13.2c0-3.8-1.9-5.7-6.1-5.7h-6.1l2.4-2.4v66.1h-4.7v-68h9c3.8,0,6.6.9,8.5,2.8,1.9,1.9,2.8,4.3,2.8,8v12.3c0,2.4-.5,4.7-1.9,6.1-.9,1.4-2.8,2.8-5.7,3.3v-1.9c2.8.5,4.7,1.9,6.1,3.3s1.9,3.8,1.9,6.6v28.3h-4.7v-28.8c0-3.8-1.9-5.7-6.1-5.7"/>
  <path class="st0" d="M813.4,149.6h6.1l8,68h-4.7l-1.9-17.9v-1.4l-3.8-33.5-.9-13.2h.5l-.9,13.2-3.8,33.5v1.4l-1.9,17.9h-4.7l8-68h0ZM809.6,196.9h13.7v4.3h-13.7v-4.3Z"/>
  <polygon class="st0" points="836.1 152.5 838 153.9 827.1 153.9 827.1 149.6 849.8 149.6 849.8 153.9 839.4 153.9 840.8 152.5 840.8 217.6 836.1 217.6 836.1 152.5"/>
  <rect class="st0" x="854" y="149.6" width="4.7" height="68"/>
  <path class="st0" d="M869.1,216.2c-1.9-1.9-2.8-4.3-2.8-8v-48.6c0-3.8.9-6.1,2.8-8,1.9-1.9,4.3-2.8,7.1-2.8h0c2.8,0,5.2.9,7.1,2.8,1.9,1.9,2.8,4.3,2.8,8v48.6c0,3.8-.9,6.1-2.8,8s-4.3,2.8-7.1,2.8h0c-2.8,0-5.2-.9-7.1-2.8M880.5,212.9c.9-.9,1.4-2.4,1.4-4.3v-49.6c0-1.9-.5-3.3-1.4-4.3s-2.4-1.4-3.8-1.4h0c-1.4,0-2.8.5-3.8,1.4s-1.4,2.4-1.4,4.3v49.6c0,1.9.5,3.3,1.4,4.3s2.4,1.4,3.8,1.4h0c1.4,0,2.8-.5,3.8-1.4"/>
  <polygon class="st0" points="894.2 149.6 900.3 149.6 907.4 186.9 911.2 212.4 910.7 212.4 910.2 186.9 910.2 149.6 914.9 149.6 914.9 217.6 908.8 217.6 901.7 180.3 897.5 154.8 897.9 154.8 898.9 180.3 898.9 217.6 894.2 217.6 894.2 149.6"/>
  <path class="st0" d="M924.9,216.2c-1.9-1.9-2.8-4.3-2.8-8v-16.5h4.7v17c0,1.9.5,3.3,1.4,4.3s2.4,1.4,3.8,1.4h0c1.4,0,2.8-.5,3.8-1.4s1.4-2.4,1.4-4.3v-8.5c0-3.3-.5-6.1-1.4-8.5s-2.8-4.7-4.7-7.6h-.5c-1.9-2.8-3.3-4.7-4.3-6.6s-1.9-3.8-2.8-6.1c-.5-2.4-.9-5.2-.9-8v-4.3c0-3.8.9-6.1,2.8-8,1.9-1.9,4.3-2.8,7.1-2.8h0c2.8,0,5.2.9,7.1,2.8s2.8,4.3,2.8,8v12.3h-5.2v-12.8c0-1.9-.5-3.3-1.4-4.3s-1.9-1.4-3.8-1.4h0c-1.4,0-2.8.5-3.8,1.4s-1.4,2.4-1.4,4.3v4.7c0,2.4,0,4.7.5,6.6s1.4,3.3,1.9,4.7c.9,1.4,1.9,2.8,3.8,5.2h0v.9c1.9,2.4,3.3,4.3,4.3,6.1s1.9,3.8,2.8,6.1.9,4.7.9,7.6v8c0,3.8-.9,6.1-2.8,8-1.9,1.9-4.3,2.8-7.1,2.8h0c-2.8,0-5.2-.9-7.1-2.8"/>
  <polygon class="st0" points="966.9 152.5 968.8 153.9 958.4 153.9 958.4 149.6 981.1 149.6 981.1 153.9 970.2 153.9 972.1 152.5 972.1 217.6 966.9 217.6 966.9 152.5"/>
  <polygon class="st0" points="985.3 149.6 1002.8 149.6 1002.8 153.9 988.6 153.9 990 152.5 990 180.8 988.2 178.9 1000 178.9 1000 183.2 988.2 183.2 990 181.3 990 215.3 988.2 213.4 1003.3 213.4 1003.3 217.6 985.3 217.6 985.3 149.6"/>
  <path class="st0" d="M1018.4,183.2h-7.6v-4.3h7.1c3.8,0,6.1-1.9,6.1-5.7v-13.2c0-3.8-1.9-5.7-6.1-5.7h-6.1l2.4-2.4v66.1h-4.7v-68h9c3.8,0,6.6.9,8.5,2.8,1.9,1.9,2.8,4.3,2.8,8v12.3c0,2.4-.5,4.7-1.9,6.1s-2.8,2.8-5.7,3.3v-1.9c2.8.5,4.7,1.9,6.1,3.3s1.9,3.8,1.9,6.6v28.3h-4.7v-28.8c0-3.8-1.9-5.7-6.1-5.7"/>
  <path class="st0" d="M1046.2,183.2h-7.6v-4.3h7.1c3.8,0,6.1-1.9,6.1-5.7v-13.2c0-3.8-1.9-5.7-6.1-5.7h-6.1l2.4-2.4v66.1h-4.7v-68h9c3.8,0,6.6.9,8.5,2.8,1.9,1.9,2.8,4.3,2.8,8v12.3c0,2.4-.5,4.7-1.9,6.1s-2.8,2.8-5.7,3.3v-1.9c2.8.5,4.7,1.9,6.1,3.3s1.9,3.8,1.9,6.6v28.3h-4.7v-28.8c0-3.8-1.9-5.7-6.1-5.7"/>
  <rect class="st0" x="1064.7" y="149.6" width="4.7" height="68"/>
  <polygon class="st0" points="1082.6 152.5 1084 153.9 1073.6 153.9 1073.6 149.6 1096.3 149.6 1096.3 153.9 1085.4 153.9 1087.3 152.5 1087.3 217.6 1082.6 217.6 1082.6 152.5"/>
  <path class="st0" d="M1102.4,216.2c-1.9-1.9-2.8-4.3-2.8-8v-48.6c0-3.8.9-6.1,2.8-8,1.9-1.9,4.3-2.8,7.1-2.8h0c2.8,0,5.2.9,7.1,2.8,1.9,1.9,2.8,4.3,2.8,8v48.6c0,3.8-.9,6.1-2.8,8s-4.3,2.8-7.1,2.8h0c-2.8,0-5.2-.9-7.1-2.8M1113.8,212.9c.9-.9,1.4-2.4,1.4-4.3v-49.6c0-1.9-.5-3.3-1.4-4.3s-2.4-1.4-3.8-1.4h0c-1.4,0-2.8.5-3.8,1.4s-1.4,2.4-1.4,4.3v49.6c0,1.9.5,3.3,1.4,4.3s2.4,1.4,3.8,1.4h0c1.4,0,2.8-.5,3.8-1.4"/>
  <path class="st0" d="M1136.9,183.2h-7.6v-4.3h7.1c3.8,0,6.1-1.9,6.1-5.7v-13.2c0-3.8-1.9-5.7-6.1-5.7h-6.1l2.4-2.4v66.1h-4.7v-68h9c3.8,0,6.6.9,8.5,2.8,1.9,1.9,2.8,4.3,2.8,8v12.3c0,2.4-.5,4.7-1.9,6.1s-2.8,2.8-5.7,3.3v-1.9c2.8.5,4.7,1.9,6.1,3.3s1.9,3.8,1.9,6.6v28.3h-4.7v-28.8c0-3.8-1.9-5.7-6.1-5.7"/>
  <rect class="st0" x="1154.9" y="149.6" width="4.7" height="68"/>
  <path class="st0" d="M1173.3,149.6h6.1l8,68h-4.7l-1.9-17.9v-1.4l-3.8-33.5-.9-13.2h.5l-.9,13.2-3.8,33.5v1.4l-1.9,17.9h-5.2l8-68h.5ZM1169,196.9h13.7v4.3h-13.7v-4.3Z"/>
  <polygon class="st0" points="1192.2 149.6 1197.4 149.6 1197.4 215.7 1195.5 213.4 1209.7 213.4 1209.7 217.6 1192.2 217.6 1192.2 149.6"/>
  <polygon class="st0" points="1214.4 149.6 1231.9 149.6 1231.9 153.9 1217.2 153.9 1219.1 152.5 1219.1 180.8 1217.2 178.9 1229 178.9 1229 183.2 1217.2 183.2 1219.1 181.3 1219.1 215.3 1217.2 213.4 1232.3 213.4 1232.3 217.6 1214.4 217.6 1214.4 149.6"/>
  <path class="st0" d="M1239.4,216.2c-1.9-1.9-2.8-4.3-2.8-8v-16.5h4.7v17c0,1.9.5,3.3,1.4,4.3s2.4,1.4,3.8,1.4h0c1.4,0,2.8-.5,3.8-1.4.9-.9,1.4-2.4,1.4-4.3v-8.5c0-3.3-.5-6.1-1.4-8.5-.9-2.4-2.8-4.7-4.7-7.6h-.5c-1.9-2.8-3.3-4.7-4.3-6.6-1.4-1.9-1.9-3.8-2.8-6.1-.5-2.4-.9-5.2-.9-8v-4.3c0-3.8.9-6.1,2.8-8s4.3-2.8,7.1-2.8h0c2.8,0,5.2.9,7.1,2.8s2.8,4.3,2.8,8v12.3h-4.7v-12.8c0-1.9-.5-3.3-1.4-4.3-.9-.9-1.9-1.4-3.8-1.4h0c-1.4,0-2.8.5-3.8,1.4-.9.9-1.4,2.4-1.4,4.3v4.7c0,2.4,0,4.7.5,6.6s1.4,3.3,1.9,4.7c.9,1.4,1.9,2.8,3.8,5.2h0v.9c1.9,2.4,3.3,4.3,4.3,6.1s1.9,3.8,2.8,6.1.9,4.7.9,7.6v8c0,3.8-.9,6.1-2.8,8s-4.3,2.8-7.1,2.8h0c-2.8,0-5.2-.9-7.1-2.8"/>
  <path class="st0" d="M473.8,31.1c0,12.3-9.9,21.7-22.2,21.7s-22.2-9.9-22.2-21.7,9.9-21.7,22.2-21.7,22.2,9.9,22.2,21.7"/>
  <path class="st0" d="M415.3,277.6c0,12.3-9.9,21.7-22.2,21.7s-22.2-9.9-22.2-21.7,9.9-21.7,22.2-21.7,22.2,9.9,22.2,21.7"/>
  <path class="st0" d="M129.5,269.1c-24.6,0-47.2,8.5-65.6,22.2l3.8,3.8c7.1,7.1,8,6.1,17,7.1,4.3.5,8,1.9,11.8,3.8l37.3,21.3c2.8,1.9,3.8,5.7,2.4,8.5s-5.2,3.8-8.5,2.4l-13.2-6.1c-2.4-.9-9.9-4.7-6.6-1.4l15.6,15.6h0c12.8,12.8,24.6,24.6,37.3,37.3h1.9v-1.9c-9.4-9.4-19.4-18.9-28.8-28.8-2.4-2.4-2.4-6.1,0-8.5s6.1-2.4,8.5,0l37.3,37.3c3.3,3.3,0-4.3-1.4-6.6l-6.1-13.2c-1.4-2.8-.5-6.6,2.4-8.5s6.6-.5,8.5,2.4l21.3,37.3c1.9,3.8,3.3,7.6,3.8,11.8.9,9,0,9.9,7.1,17l8.5,8.5c9-15.6,14.2-34,14.2-52.9,0-59-48.2-107.2-107.2-107.2"/>
  <path class="st0" d="M105.4,347.5v1.4c3.8,3.8,7.1,7.1,10.9,10.9h0c9,9,17.5,17.5,26.4,26.4h0c2.4,2.4,4.3,4.7,6.6,6.6.5.5,1.4.5,1.9,0v-1.4c-12.8-12.8-24.6-24.6-37.3-37.3h0c-2.4-2.4-4.3-4.7-6.6-6.6h-1.4"/>
  <path class="st0" d="M125.3,386.2c-5.7-5.7-11.8-11.8-17.5-17.5h0c-3.8-3.8-7.1-7.1-10.9-10.9h-1.4c-.5,0-.5,1.4,0,1.4,7.6,7.6,15.1,15.1,22.7,22.7h0c7.1,7.1,14.2,14.2,21.3,21.3h1.9v-1.4c-2.4-2.4-4.3-4.3-6.6-6.6h0c-2.8-2.8-6.1-6.1-9-9"/>
  <path class="st0" d="M165.9,443.4c-5.2-1.9-9.9-5.7-15.1-10.4-7.1-7.1-14.6-14.6-21.7-21.7l-9.4-9.4h0c-10.9-11.3-22.2-22.2-33.1-33.5h-1.9v1.9c7.1,7.1,14.2,14.2,21.3,21.3s2.4,6.1,0,8.5-6.1,2.4-8.5,0l-20.3-20.3c-7.1-7.1-14.6-14.6-21.7-21.7-5.2-5.2-8.5-9.9-10.4-15.1-1.4-2.8-2.4-9.4-5.7-13.2l-4.3-4.3c-8,15.1-12.8,32.6-12.8,51,0,59,48.2,107.2,107.2,107.2s45.8-7.6,63.8-20.8l-13.7-13.7c-3.8-3.8-9.9-4.7-13.2-5.7"/>
  <path class="st1" d="M125.3,386.2c-6.1-6.1-11.8-11.8-17.5-17.5h0c6.1,6.1,11.8,11.8,17.5,17.5"/>
  <path class="st1" d="M207,404.2c0-4.3-1.9-8-3.8-11.8l-21.3-37.3c-1.9-2.8-5.7-3.8-8.5-2.4-2.8,1.9-3.8,5.2-2.4,8.5l6.1,13.2c.9,2.4,4.7,9.9,1.4,6.6l-37.3-37.3c-2.4-2.4-6.1-2.4-8.5,0s-2.4,6.1,0,8.5c9.4,9.4,18.9,18.9,28.8,28.8v1.9h-1.4c-12.8-12.8-24.6-24.6-37.3-37.3h0l22.2,22.2c2.4,2.4,2.4,6.1,0,8.5s-6.1,2.4-8.5,0c-7.6-7.1-14.6-14.6-22.2-22.2h0c12.8,12.8,24.6,24.6,37.3,37.3v1.4c0,.5-1.4.5-1.9,0-2.4-2.4-4.3-4.7-6.6-6.6,2.4,2.4,2.4,6.1,0,9-2.4,2.4-6.1,2.4-8.5,0,2.4,2.4,4.3,4.3,6.6,6.6v1.4h-1.9c-7.1-7.1-14.2-14.2-21.3-21.3h0c3.8,3.8,7.1,7.1,10.4,10.4,2.4,2.4,2.4,6.1,0,9-2.4,2.4-6.1,2.4-8.5,0l9.4,9.4c7.1,7.1,14.6,14.6,21.7,21.7,4.7,5.2,9.9,8.5,15.1,10.4,2.8,1.4,9.4,2.4,13.2,5.7l13.7,13.7c12.3-9,22.2-20.3,29.8-33.5l-8.5-8.5c-7.1-7.1-6.1-8.5-7.1-17"/>
  <path class="st1" d="M142.8,386.2c-9-9-17.5-17.5-26.4-26.4h0c9,9,17.5,17.5,26.4,26.4"/>
  <path class="st2" d="M134.3,395.2h0c-2.8-2.8-6.1-6.1-9-9,2.8,2.8,5.7,5.7,9,9"/>
  <path class="st2" d="M45,343.3c1.9,5.2,5.7,9.9,10.4,15.1,7.1,7.1,14.6,14.6,21.7,21.7l20.3,20.3c2.4,2.4,6.1,2.4,9,0,2.4-2.4,2.4-6.1,0-8.5-7.1-7.1-14.2-14.2-21.3-21.3v-1.9h1.9c10.9,10.9,22.2,22.2,33.1,33.1h0l-10.9-10.4c-2.4-2.4-2.4-6.1,0-9s6.1-2.4,8.5,0c-7.6-7.6-15.1-15.1-22.7-22.7-.5-.5-.5-1.4,0-1.4h1.4c3.8,3.8,7.1,7.1,10.9,10.9-2.4-2.4-2.4-6.1,0-8.5s6.1-2.4,8.5,0c-3.8-3.8-7.1-7.1-10.9-10.9v-1.9h1.9c2.4,2.4,4.3,4.3,6.6,6.6-2.4-2.4-2.4-6.1,0-8.5s6.1-2.4,8.5,0l-15.6-15.6c-3.3-3.3,4.3,0,6.6,1.4l13.2,6.1c2.8,1.4,6.6.5,8.5-2.4s.5-6.6-2.4-8.5l-37.3-21.3c-3.8-1.9-7.6-3.3-11.8-3.8-9-.9-9.9,0-17-7.1l-3.8-3.8c-11.8,9-21.7,20.8-28.8,34l4.3,4.3c3.8,3.8,4.7,9.9,5.7,13.2"/>
  <path class="st2" d="M109.2,382c-2.4,2.4-2.4,6.1,0,9l10.9,10.9c2.4,2.4,6.1,2.4,8.5,0s2.4-6.1,0-9c-3.8-3.8-7.1-7.1-10.4-10.4-2.4-2.4-6.1-2.4-8.5,0"/>
  <path class="st2" d="M113.9,345.6c-2.4,2.4-2.4,6.1,0,8.5,7.6,7.6,14.6,14.6,22.2,22.2,2.4,2.4,6.1,2.4,8.5,0s2.4-6.1,0-8.5l-22.2-22.2c-2.4-2.4-6.1-2.4-8.5,0"/>
  <path class="st2" d="M116.3,360.3c-2.4-2.4-6.1-2.4-8.5,0s-2.4,6.1,0,8.5c6.1,6.1,11.8,11.8,17.5,17.5s6.1,6.1,9,9c2.4,2.4,6.1,2.4,8.5,0,2.4-2.4,2.4-6.1,0-9h0c-9-9-17.5-17.5-26.4-26.4"/>
  <rect class="st1" x="39.3" y="8.4" width="43.5" height="215.8"/>
</svg>