<?xml version="1.0" encoding="UTF-8"?>
<svg id="Calque_2" data-name="Calque 2" xmlns="http://www.w3.org/2000/svg" width="12.02" height="12.02" viewBox="0 0 12.02 12.02">
  <g id="Calque_1-2" data-name="Calque 1">
    <g>
      <path d="M12.02,6.01c0,3.32-2.69,6.01-6.01,6.01S0,9.33,0,6.01,2.69,0,6.01,0s6.01,2.69,6.01,6.01" fill="#f39a8b"/>
      <path d="M4.71,9.84v-4.04h-1.07v-1.48h1.07v-.18c0-.62.21-1.36.72-1.82.46-.43,1.09-.57,1.6-.57.38,0,.67.04.93.1l-.03,1.55c-.16-.03-.31-.05-.52-.05-.45,0-.82.31-.82.71v.27h1.25v1.48h-1.23v4.04h-1.91Z" fill="#fff"/>
    </g>
  </g>
</svg>