<?xml version="1.0" encoding="UTF-8"?>
<svg id="Calque_2" data-name="Calque 2" xmlns="http://www.w3.org/2000/svg" width="12.02" height="12.02" viewBox="0 0 12.02 12.02">
  <g id="Calque_1-2" data-name="Calque 1">
    <g>
      <path d="M12.02,6.01c0,3.32-2.69,6.01-6.01,6.01S0,9.33,0,6.01,2.69,0,6.01,0s6.01,2.69,6.01,6.01" fill="#fff"/>
      <path d="M4.22,2.54c0,.45-.34.81-.88.81s-.85-.36-.84-.81c-.01-.47.33-.82.85-.82s.86.35.87.82M2.54,3.99h1.62v5.23h-1.62V3.99Z" fill="#f39a8b"/>
      <path d="M5.2,5.66c0-.65-.02-1.21-.04-1.67h1.41l.07.72h.03c.21-.33.75-.83,1.61-.83,1.07,0,1.87.71,1.87,2.24v3.1h-1.62v-2.9c0-.67-.24-1.13-.82-1.13-.45,0-.72.31-.82.61-.04.1-.07.26-.07.41v3.01h-1.62v-3.56Z" fill="#f39a8b"/>
    </g>
  </g>
</svg>