<?xml version="1.0" encoding="UTF-8"?>
<svg id="Calque_2" data-name="Calque 2" xmlns="http://www.w3.org/2000/svg" width="11.95" height="11.95" viewBox="0 0 11.95 11.95">
  <g id="Calque_1-2" data-name="Calque 1">
    <g>
      <path d="M11.95,5.98c0,3.3-2.68,5.97-5.98,5.97S0,9.28,0,5.98,2.68,0,5.98,0s5.98,2.68,5.98,5.98" fill="#005468"/>
      <path d="M7.06,4.05h.83l-.3,1.47c-.06.27-.26,1.22-.26,1.49,0,.2.06.28.19.28.09,0,.17-.05.25-.11.11-.08.24-.21.41-.47.48-.76.53-1.57.53-1.88,0-.18,0-.68-.31-1.15-.51-.79-1.5-.83-1.76-.83s-.79.04-1.41.35c-1.22.63-1.99,1.94-1.99,3.3,0,.33.02,1.2.74,1.87.74.68,1.76.73,2.06.73.49,0,1.45-.11,2.45-.87.19-.15.38-.31.55-.48l.42.57c-.45.4-1.58,1.5-3.4,1.5-.87,0-1.83-.28-2.51-.84-.44-.37-1.07-1.11-1.07-2.5,0-2.37,1.84-4.38,4.25-4.38.29,0,1.11.03,1.81.59.37.3.93.94.93,2.1,0,.15,0,.3-.03.45-.09.82-.4,1.68-1,2.27-.12.12-.56.54-1.16.54-.08,0-.5-.02-.71-.31-.1-.13-.11-.25-.13-.31-.07.08-.19.23-.4.39-.24.17-.46.24-.75.24s-.5-.09-.6-.14c-.32-.18-.68-.59-.68-1.42,0-.27.05-.93.42-1.6.12-.2.63-1.05,1.58-1.05.13,0,.47,0,.75.28.12.1.2.24.22.28l.09-.37ZM6.62,5.12c-.13-.37-.42-.43-.57-.43-.24,0-.4.13-.46.18-.42.34-.63,1.07-.63,1.58,0,.4.13.6.29.71.05.03.16.09.3.09.3,0,.58-.27.74-.49.23-.33.4-.89.39-1.3,0-.12-.02-.23-.05-.34" fill="#fff"/>
    </g>
  </g>
</svg>