<?xml version="1.0" encoding="UTF-8"?>
<svg id="Calque_1" data-name="Calque 1" xmlns="http://www.w3.org/2000/svg" width="52.82mm" height="52.82mm" viewBox="0 0 149.73 149.73">
  <rect width="149.73" height="149.73" fill="#fff"/>
  <g>
    <polygon points="16.65 20.75 24.91 20.75 24.91 23.99 16.65 23.99 16.65 31.47 13.16 31.47 13.16 13.14 26.26 13.14 26.26 16.39 16.65 16.39 16.65 20.75" fill="#f49083"/>
    <path d="M37.89,24.71c0-2.35-1.51-3.99-3.36-3.99s-3.36,1.64-3.36,3.99,1.51,3.88,3.36,3.88,3.36-1.58,3.36-3.88M41.4,24.68c0,4.07-3.09,7.1-6.87,7.1s-6.84-3.04-6.84-7.1,3.07-7.16,6.84-7.16,6.87,3.09,6.87,7.16" fill="#f49083"/>
    <path d="M56.4,31.47h-3.49v-7.95c0-.79-.24-2.69-2.54-2.69-1.55,0-2.64,1.16-2.64,2.69v7.95h-3.49v-13.6h3.33v1.32c.87-1.03,2.06-1.66,3.51-1.66,3.2,0,5.31,2.4,5.31,6v7.95Z" fill="#f49083"/>
    <path d="M66.17,20.8c-1.92,0-3.48,1.69-3.48,3.91s1.56,3.83,3.48,3.83,3.49-1.72,3.49-3.83-1.56-3.91-3.49-3.91M73.14,31.47h-3.33v-1.45c-1.08,1.11-2.51,1.74-4.17,1.74-3.54,0-6.47-3.06-6.47-7.08s2.93-7.11,6.47-7.11c1.58,0,2.96.58,4.02,1.59v-7.34h3.49v19.65Z" fill="#f49083"/>
    <path d="M85.69,24.92c-.74.48-1.87.71-3.3.87-1.72.19-2.78.56-2.78,1.56,0,.77.9,1.29,2.29,1.29,2.09,0,3.78-.71,3.78-2.46v-1.27ZM85.79,30.2c-.9.95-2.27,1.53-4.18,1.53-2.87,0-5.52-1.45-5.52-4.41s2.56-3.86,5.57-4.12c2.27-.21,3.88-.47,3.88-1.58,0-.71-.92-1.3-2.48-1.3-1.24,0-2.67.56-2.98,1.72h-3.49c.34-2.59,2.83-4.52,6.39-4.52,5.51,0,5.94,3.56,5.94,4.65v7.08c0,.66.21,1.69.4,2.22h-3.2c-.16-.34-.26-.76-.34-1.26" fill="#f49083"/>
    <path d="M98.94,31.44c-3.98.42-6.1-1.98-6.1-5.7v-4.78h-1.63v-3.09h1.63v-3.46h3.49v3.46h2.46v3.09h-2.46v4.81c0,1.9.87,2.61,2.62,2.51v3.17Z" fill="#f49083"/>
    <path d="M104.97,31.47h-3.49v-13.6h3.49v13.6ZM104.97,16.39h-3.49v-3.25h3.49v3.25Z" fill="#f49083"/>
    <path d="M118.1,24.71c0-2.35-1.51-3.99-3.36-3.99s-3.35,1.64-3.35,3.99,1.5,3.88,3.35,3.88,3.36-1.58,3.36-3.88M121.61,24.68c0,4.07-3.1,7.1-6.87,7.1s-6.84-3.04-6.84-7.1,3.07-7.16,6.84-7.16,6.87,3.09,6.87,7.16" fill="#f49083"/>
    <path d="M136.61,31.47h-3.49v-7.95c0-.79-.24-2.69-2.53-2.69-1.56,0-2.65,1.16-2.65,2.69v7.95h-3.49v-13.6h3.33v1.32c.87-1.03,2.06-1.66,3.52-1.66,3.2,0,5.31,2.4,5.31,6v7.95Z" fill="#f49083"/>
    <path d="M19.26,45.23c-1.93,0-3.49,1.69-3.49,3.91s1.56,3.83,3.49,3.83,3.49-1.71,3.49-3.83-1.56-3.91-3.49-3.91M26.24,55.9h-3.33v-1.45c-1.08,1.11-2.51,1.74-4.17,1.74-3.54,0-6.47-3.07-6.47-7.08s2.93-7.11,6.47-7.11c1.59,0,2.96.58,4.02,1.59v-7.34h3.49v19.65Z" fill="#f49083"/>
    <path d="M39.52,47.61c-.42-1.59-1.74-2.59-3.41-2.59s-2.85,1-3.35,2.59h6.76ZM32.71,50.46c.45,1.66,1.77,2.7,3.41,2.7,1.16,0,2.3-.5,2.88-1.58h3.72c-.79,2.77-3.19,4.65-6.57,4.65-3.83,0-6.98-3.16-6.98-7.1s3.14-7.16,6.98-7.16,7.34,3.12,6.84,8.5h-10.27Z" fill="#f49083"/>
    <polygon points="16.65 70.93 24.91 70.93 24.91 74.18 16.65 74.18 16.65 81.65 13.16 81.65 13.16 63.32 26.26 63.32 26.26 66.57 16.65 66.57 16.65 70.93" fill="#f49083"/>
    <path d="M35.93,71.16c-1.4-.16-2.57,0-3.35.85-.74.77-.87,1.87-.87,2.95v6.69h-3.49v-13.61h3.33v1.35c1.11-1.37,2.75-1.87,4.38-1.61v3.38Z" fill="#f49083"/>
    <path d="M47.13,75.1c-.74.48-1.87.71-3.3.87-1.72.18-2.78.55-2.78,1.56,0,.76.9,1.29,2.29,1.29,2.09,0,3.78-.71,3.78-2.46v-1.27ZM47.23,80.38c-.9.95-2.27,1.53-4.17,1.53-2.88,0-5.52-1.45-5.52-4.41s2.56-3.85,5.57-4.12c2.27-.21,3.88-.47,3.88-1.58,0-.71-.93-1.3-2.48-1.3-1.24,0-2.67.55-2.98,1.72h-3.49c.34-2.59,2.83-4.51,6.39-4.51,5.52,0,5.94,3.57,5.94,4.65v7.08c0,.66.21,1.69.4,2.22h-3.19c-.16-.34-.27-.77-.35-1.27" fill="#f49083"/>
    <path d="M66.3,81.65h-3.49v-7.95c0-.79-.24-2.69-2.54-2.69-1.56,0-2.64,1.16-2.64,2.69v7.95h-3.49v-13.61h3.33v1.32c.87-1.03,2.06-1.66,3.51-1.66,3.2,0,5.31,2.4,5.31,5.99v7.95Z" fill="#f49083"/>
    <path d="M76.1,81.97c-4.09,0-7.02-3.17-7.02-7.11s2.93-7.16,7.02-7.16c3.28,0,5.76,1.84,6.55,4.91h-3.73c-.47-.92-1.55-1.72-2.82-1.72-1.93,0-3.49,1.79-3.49,3.99s1.56,3.91,3.49,3.91c1.3,0,2.4-.79,2.85-1.74h3.73c-.79,3.09-3.28,4.91-6.58,4.91" fill="#f49083"/>
    <path d="M94.98,73.36c-.42-1.58-1.74-2.59-3.4-2.59s-2.85,1-3.35,2.59h6.76ZM88.17,76.21c.45,1.66,1.77,2.69,3.41,2.69,1.16,0,2.3-.5,2.88-1.58h3.73c-.79,2.77-3.2,4.65-6.58,4.65-3.83,0-6.97-3.17-6.97-7.11s3.14-7.16,6.97-7.16c4.01,0,7.35,3.12,6.84,8.5h-10.27Z" fill="#f49083"/>
  </g>
</svg>