<?xml version="1.0" encoding="UTF-8"?>
<svg id="Calque_2_xA0_Image" xmlns="http://www.w3.org/2000/svg" xmlns:svg="http://www.w3.org/2000/svg" xmlns:sodipodi="http://sodipodi.sourceforge.net/DTD/sodipodi-0.dtd" xmlns:rdf="http://www.w3.org/1999/02/22-rdf-syntax-ns#" xmlns:inkscape="http://www.inkscape.org/namespaces/inkscape" xmlns:dc="http://purl.org/dc/elements/1.1/" xmlns:cc="http://creativecommons.org/ns#" version="1.1" viewBox="0 0 600 203.666">
  <!-- Generator: Adobe Illustrator 29.6.0, SVG Export Plug-In . SVG Version: 2.1.1 Build 207)  -->
  <sodipodi:namedview id="namedview855" bordercolor="#666666" borderopacity="1" gridtolerance="10" guidetolerance="10" inkscape:current-layer="Calque_2_xA0_Image_1_" inkscape:cx="121.08523" inkscape:cy="43.365109" inkscape:pageopacity="0" inkscape:pageshadow="2" inkscape:window-height="900" inkscape:window-maximized="0" inkscape:window-width="1440" inkscape:window-x="0" inkscape:window-y="0" inkscape:zoom="0.7680017" objecttolerance="10" pagecolor="#ffffff" showgrid="false"/>
  <g id="g908">
    <polygon id="polygon834" points="513.812 178.754 513.739 31.898 539.759 31.898 539.832 156.143 600 156.143 600 178.754 513.812 178.754" fill="#fff"/>
    <polygon id="polygon836" points="289.708 55.351 249.281 55.351 249.281 32.678 357.086 32.678 357.086 55.351 315.592 55.351 315.592 180.769 289.708 180.769 289.708 55.351" fill="#fff"/>
    <path id="path838" d="M442.094,84.789c0,38.77-48.08,43.807-71.241,44.065,1.011,16.356,10.326,32.218,31.718,32.218,14.857,0,25.677-6.8,31.713-11.078l9.309,19.882c-4.015,3.526-20.646,14.104-44.301,14.104-41.538,0-58.658-26.687-58.658-64.447,0-37.013,21.404-69.736,61.421-69.736,24.688,0,40.039,12.588,40.039,34.992M400.309,71.202c-20.146,0-29.702,19.635-30.466,38.254,13.599.258,45.564-4.026,45.564-23.408.006-9.315-6.03-14.846-15.098-14.846" fill="#fff"/>
    <rect id="rect840" x="463.054" y="63.554" width="27.732" height="116.929" fill="#fff"/>
    <path id="path842" d="M208.888,181.364c9.478-3.038,15.912-7.311,18.119-9.231l-8.332-17.782c-5.401,3.824-15.081,9.905-28.36,9.905-8.04,0-14.155-2.521-18.624-6.513v-.236h-.286c-5.991-5.503-8.95-13.706-9.461-22.066,20.707-.23,63.706-4.728,63.706-39.405,0-20.034-13.723-31.291-35.794-31.291-35.789,0-54.924,29.27-54.924,62.358,0,11.477,1.814,21.757,5.604,30.399h-32.336V31.656h-27.462v149.708h128.153ZM188.282,83.885c8.108,0,13.504,4.952,13.504,13.273,0,17.339-28.591,21.174-40.747,20.943.679-16.654,9.231-34.217,27.243-34.217" fill="#fff"/>
    <path id="path844" d="M454.576,31.651c-.354,7.782,3.189,15.71,10.971,20.399,6.901,4.166,15.845,4.166,22.751,0,7.771-4.688,11.325-12.617,10.966-20.399h-44.688Z" fill="#fff"/>
    <polygon id="polygon846" points="26.025 32.56 26.092 181.05 80.696 181.05 80.696 203.666 .073 203.666 0 32.56 26.025 32.56" fill="#fff"/>
    <polygon id="polygon848" points="0 0 107.81 0 107.81 22.673 66.311 22.673 66.311 171.741 40.432 171.741 40.432 22.673 0 22.673 0 0" fill="#fff"/>
  </g>
</svg>