<?xml version="1.0" encoding="UTF-8"?>
<svg id="Calque_2" xmlns="http://www.w3.org/2000/svg" version="1.1" viewBox="0 0 68.3 25.9">
  <!-- Generator: Adobe Illustrator 29.6.0, SVG Export Plug-In . SVG Version: 2.1.1 Build 207)  -->
  <defs>
    <style>
      .st0 {
        fill: #f39a8b;
      }

      .st1 {
        fill: #005468;
      }

      .st2 {
        fill: #fff;
      }
    </style>
  </defs>
  <g id="Calque_1-2">
    <g>
      <rect class="st1" x=".9" y="0" width="2.2" height="10.8"/>
      <path class="st1" d="M8.3,7.6v1c0,.8-.2,1.4-.6,1.8-.4.4-1,.6-1.7.6s-1.3-.2-1.7-.6c-.4-.4-.6-1-.6-1.8v-3.8c0-.8.2-1.4.6-1.8s1-.6,1.7-.6,1.3.2,1.7.6c.4.4.6,1,.6,1.8v2.5h-2.5v1.7c0,.2,0,.3.2.3s.2,0,.2-.3v-1.4h2.2,0ZM6.1,4.5c0-.2,0-.3-.2-.3s-.2,0-.2.3v1.3h.3v-1.3h0Z"/>
      <path class="st1" d="M14.1,1.4v1.2h.7v1.8h-.7v4.4s0,0,0,.1.1,0,.2,0c.1,0,.2,0,.4,0v1.8c-.6,0-1,0-1.4,0s-.7-.1-.9-.2-.4-.3-.4-.6c0-.3-.1-.6-.1-1.1v-4.5h-.5v-1.8h.5v-1.2h2.2Z"/>
      <path class="st1" d="M19.9,7.6v1c0,.8-.2,1.4-.6,1.8-.4.4-1,.6-1.7.6s-1.3-.2-1.7-.6c-.4-.4-.6-1-.6-1.8v-3.8c0-.8.2-1.4.6-1.8.4-.4,1-.6,1.7-.6s1.3.2,1.7.6c.4.4.6,1,.6,1.8v2.5h-2.5v1.7c0,.2,0,.3.1.3s.1,0,.1-.3v-1.4h2.2ZM17.7,4.5c0-.2,0-.3-.1-.3s-.1,0-.1.3v1.3h.3v-1.3h0Z"/>
      <rect class="st1" x="20.5" y="2.6" width="2.2" height="8.3"/>
      <rect class="st1" x="23.3" y="0" width="2.2" height="23.4"/>
      <polygon class="st1" points="13.4 23.4 12.3 15.1 14.6 15.1 14.6 19.2 14.7 20.3 14.8 20.3 14.8 19.2 14.9 15.1 17.2 15.1 16.1 23.4 13.4 23.4"/>
      <rect class="st1" x="17.6" y="15.1" width="2.2" height="8.2"/>
      <rect class="st1" x="20.4" y="12.6" width="2.2" height="10.8"/>
      <path class="st1" d="M30.6,20.1v1c0,.8-.2,1.4-.6,1.8-.4.4-1,.6-1.7.6s-1.3-.2-1.7-.6c-.4-.4-.6-1-.6-1.8v-3.8c0-.8.2-1.4.6-1.8.4-.4,1-.6,1.7-.6s1.3.2,1.7.6.6,1,.6,1.8v2.5h-2.5v1.7c0,.2,0,.3.1.3s.1-.1.1-.3v-1.4h2.2,0ZM28.4,17c0-.2,0-.3-.1-.3s-.1,0-.1.3v1.3h.3v-1.3h0Z"/>
      <path class="st1" d="M33.3,15.1v6.4c0,.2,0,.3.2.3s.2-.1.2-.3v-6.4h2.2v8.2h-1.7l-.3-.8h0c-.1.3-.3.6-.5.8s-.5.3-.8.3c-.4,0-.8-.2-1-.6-.2-.4-.4-1-.4-1.8v-6h2.2,0Z"/>
      <path class="st1" d="M38.3,15.1v1.5h.2c0-.4,0-.6,0-.8s.2-.3.3-.4c.1,0,.3-.1.5-.2.2,0,.4,0,.7,0v2.3c-.2,0-.5,0-.7,0s-.3,0-.4.1c-.1,0-.2.1-.2.3s0,.3,0,.5v5.1h-2.2v-8.2s1.9,0,1.9,0Z"/>
      <path class="st1" d="M45.2,21.2c0,.8-.1,1.4-.3,1.8-.2.4-.6.6-1,.6s-.5,0-.8-.3c-.2-.2-.4-.5-.5-.8h0l-.3.8h-1.7v-10.7h2.2v3.2h0c.2-.7.6-1,1.1-1s.8.2,1,.6c.2.4.3,1,.3,1.8v3.8h0ZM42.9,21.8c0,0,.2-.1.2-.3v-4.5c0-.2,0-.3-.2-.3s-.2,0-.2.3v4.5c0,.2,0,.3.2.3"/>
      <path class="st1" d="M48.8,23.4l-.2-1.1h0c0,.1-.1.3-.2.5s-.2.3-.3.4c-.1.1-.2.2-.4.3s-.3.1-.5.1c-.4,0-.7-.2-.9-.6s-.3-1-.3-1.8v-.5c0-.8.1-1.4.3-1.8.2-.4.5-.6,1-.6s.9.3,1.1,1h0v-2.3c0-.2,0-.3-.2-.3s-.2,0-.2.3v.9h-2.2v-.6c0-.8.2-1.4.6-1.8s1-.6,1.7-.6,1.3.2,1.7.6.6,1,.6,1.8v6h-1.7ZM48.2,21.8c0,0,.2-.1.2-.3v-1.1c0-.2,0-.3-.2-.3s-.2,0-.2.3v1.1c0,.2,0,.3.2.3"/>
      <path class="st1" d="M53.6,23.4v-6.4c0-.2,0-.3-.2-.3s-.2.1-.2.3v6.4h-2.2v-8.2h1.7l.3.8h0c.1-.3.3-.6.5-.8s.5-.3.8-.3c.4,0,.8.2,1,.6.2.4.3,1,.3,1.8v6h-2.2,0Z"/>
      <path class="st1" d="M58.8,23.4v-6.4c0-.2,0-.3-.2-.3s-.2.1-.2.3v6.4h-2.2v-8.2h1.7l.3.8h0c.1-.3.3-.6.5-.8s.5-.3.8-.3c.4,0,.8.2,1,.6.2.4.3,1,.3,1.8v6h-2.2,0Z"/>
      <path class="st1" d="M66.2,20.1v1c0,.8-.2,1.4-.6,1.8s-1,.6-1.7.6-1.3-.2-1.7-.6c-.4-.4-.6-1-.6-1.8v-3.8c0-.8.2-1.4.6-1.8s1-.6,1.7-.6,1.3.2,1.7.6c.4.4.6,1,.6,1.8v2.5h-2.5v1.7c0,.2,0,.3.2.3s.1-.1.1-.3v-1.4h2.2ZM64.1,17c0-.2,0-.3-.2-.3s-.2,0-.2.3v1.3h.3v-1.3h0Z"/>
      <path class="st2" d="M27.3,2h.3l.4,3.4h-.2v-.9c0,0,0,0,0,0l-.2-1.7v-.7s0,0,0,0v.7s-.2,1.7-.2,1.7h0c0,0,0,1,0,1h-.2l.4-3.4h0ZM27.1,4.4h.7v.2h-.7v-.2Z"/>
      <path class="st2" d="M28.3,5.4c0,0-.1-.2-.1-.4v-.8h.2v.8c0,0,0,.2,0,.2,0,0,.1,0,.2,0h0c0,0,.1,0,.2,0,0,0,0-.1,0-.2v-.4c0-.2,0-.3,0-.4,0-.1-.1-.2-.2-.4h0c0-.1-.2-.2-.2-.3,0,0-.1-.2-.1-.3,0-.1,0-.2,0-.4v-.2c0-.2,0-.3.1-.4,0,0,.2-.1.4-.1h0c.1,0,.3,0,.4.1,0,0,.1.2.1.4v.6h-.2v-.7c0,0,0-.2,0-.2s-.1,0-.2,0h0c0,0-.1,0-.2,0,0,0,0,.1,0,.2v.2c0,.1,0,.2,0,.3,0,0,0,.2.1.2s.1.2.2.3h0c0,.2.2.3.2.3,0,0,.1.2.1.3,0,.1,0,.2,0,.4v.4c0,.2,0,.3-.1.4,0,0-.2.1-.4.1h0c-.1,0-.3,0-.4-.1"/>
      <path class="st2" d="M29.7,5.4c0,0-.1-.2-.1-.4v-.8h.2v.8c0,0,0,.2,0,.2,0,0,.1,0,.2,0h0c0,0,.1,0,.2,0,0,0,0-.1,0-.2v-.4c0-.2,0-.3,0-.4,0-.1-.1-.2-.2-.4h0c0-.1-.2-.2-.2-.3,0,0-.1-.2-.1-.3,0-.1,0-.2,0-.4v-.2c0-.2,0-.3.1-.4,0,0,.2-.1.4-.1h0c.1,0,.3,0,.4.1,0,0,.1.2.1.4v.6h-.2v-.7c0,0,0-.2,0-.2s-.1,0-.2,0h0c0,0-.1,0-.2,0,0,0,0,.1,0,.2v.2c0,.1,0,.2,0,.3,0,0,0,.2.1.2s.1.2.2.3h0c0,.2.2.3.2.3,0,0,.1.2.1.3,0,.1,0,.2,0,.4v.4c0,.2,0,.3-.1.4s-.2.1-.4.1h0c-.1,0-.3,0-.4-.1"/>
      <path class="st2" d="M31,5.4c0,0-.1-.2-.1-.4v-2.4c0-.2,0-.3.1-.4s.2-.1.4-.1h0c.1,0,.3,0,.4.1s.1.2.1.4v2.4c0,.2,0,.3-.1.4,0,0-.2.1-.4.1h0c-.1,0-.3,0-.4-.1M31.6,5.2s0-.1,0-.2v-2.5c0,0,0-.2,0-.2s-.1,0-.2,0h0c0,0-.1,0-.2,0,0,0,0,.1,0,.2v2.5c0,0,0,.2,0,.2,0,0,.1,0,.2,0h0c0,0,.1,0,.2,0"/>
      <path class="st2" d="M32.4,5.4c0,0-.1-.2-.1-.4v-2.5c0-.2,0-.3.1-.4,0,0,.2-.1.4-.1h0c.2,0,.3,0,.4.1,0,0,.1.2.1.4v.6h-.2v-.7c0,0,0-.2,0-.2s-.1,0-.2,0h0c0,0-.1,0-.2,0s0,.1,0,.2v2.5c0,0,0,.2,0,.2,0,0,.1,0,.2,0h0c0,0,.1,0,.2,0,0,0,0-.1,0-.2v-.8h.2v.8c0,.2,0,.3-.1.4s-.2.1-.4.1h0c-.2,0-.3,0-.4-.1"/>
      <rect class="st2" x="33.6" y="2" width=".2" height="3.4"/>
      <path class="st2" d="M34.5,2h.3l.4,3.4h-.2v-.9c0,0,0,0,0,0l-.2-1.7v-.7s0,0,0,0v.7s-.2,1.7-.2,1.7h0c0,0,0,1,0,1h-.2s.4-3.4.4-3.4ZM34.3,4.4h.7v.2h-.7v-.2Z"/>
      <polygon class="st2" points="35.7 2.2 35.8 2.3 35.2 2.3 35.2 2 36.4 2 36.4 2.3 35.8 2.3 35.9 2.2 35.9 5.5 35.7 5.5 35.7 2.2"/>
      <rect class="st2" x="36.6" y="2" width=".2" height="3.4"/>
      <path class="st2" d="M37.3,5.4c0,0-.1-.2-.1-.4v-2.4c0-.2,0-.3.1-.4s.2-.1.4-.1h0c.2,0,.3,0,.4.1s.1.2.1.4v2.4c0,.2,0,.3-.1.4,0,0-.2.1-.4.1h0c-.2,0-.3,0-.4-.1M37.9,5.2s0-.1,0-.2v-2.5c0,0,0-.2,0-.2s-.1,0-.2,0h0c0,0-.1,0-.2,0,0,0,0,.1,0,.2v2.5c0,0,0,.2,0,.2,0,0,.1,0,.2,0h0c0,0,.1,0,.2,0"/>
      <polygon class="st2" points="38.6 2 38.9 2 39.2 3.9 39.4 5.2 39.4 5.2 39.4 3.9 39.4 2 39.6 2 39.6 5.5 39.3 5.5 39 3.6 38.8 2.3 38.8 2.3 38.8 3.6 38.8 5.5 38.6 5.5 38.6 2"/>
      <path class="st2" d="M40.6,2h.5c.2,0,.3,0,.4.1,0,0,.1.2.1.4v.8c0,.2,0,.3-.1.4,0,0-.2.1-.4.1h-.3,0c0,0,0,1.5,0,1.5h-.2v-3.4h0ZM40.8,3.7h.3c.2,0,.3,0,.3-.3v-.9c0-.2,0-.3-.3-.3h-.3,0c0,0,0,1.6,0,1.6h0c0,0,0-.1,0-.1Z"/>
      <path class="st2" d="M42,5.4c0,0-.1-.2-.1-.4v-2.4c0-.2,0-.3.1-.4s.2-.1.4-.1h0c.2,0,.3,0,.4.1s.1.2.1.4v2.4c0,.2,0,.3-.1.4,0,0-.2.1-.4.1h0c-.2,0-.3,0-.4-.1M42.6,5.2s0-.1,0-.2v-2.5c0,0,0-.2,0-.2s-.1,0-.2,0h0c0,0-.1,0-.2,0,0,0,0,.1,0,.2v2.5c0,0,0,.2,0,.2,0,0,.1,0,.2,0h0c0,0,.1,0,.2,0"/>
      <path class="st2" d="M43.4,5.4c0,0-.1-.2-.1-.4v-2.9h.2v3c0,0,0,.2,0,.2,0,0,.1,0,.2,0h0c0,0,.1,0,.2,0,0,0,0-.1,0-.2v-3h.2v2.9c0,.2,0,.3-.1.4,0,0-.2.1-.4.1h0c-.2,0-.3,0-.4-.1"/>
      <path class="st2" d="M45.1,3.7h-.4v-.2h.4c.2,0,.3,0,.3-.3v-.7c0-.2,0-.3-.3-.3h-.3.1c0-.1,0,3.2,0,3.2h-.2v-3.4h.5c.2,0,.3,0,.4.1,0,0,.1.2.1.4v.6c0,.1,0,.2,0,.3,0,0-.2.1-.3.2h0c.1,0,.2,0,.3,0,0,0,0,.2,0,.3v1.4h-.2v-1.4c0-.2,0-.3-.3-.3"/>
      <polygon class="st2" points="46.7 2 46.9 2 46.9 5.3 46.8 5.2 47.5 5.2 47.5 5.5 46.7 5.5 46.7 2"/>
      <polygon class="st2" points="47.8 2 48.7 2 48.7 2.3 47.9 2.3 48 2.2 48 3.6 47.9 3.5 48.5 3.5 48.5 3.7 47.9 3.7 48 3.6 48 5.3 47.9 5.2 48.7 5.2 48.7 5.5 47.8 5.5 47.8 2"/>
      <path class="st2" d="M49.6,2h.5c.2,0,.3,0,.4.1,0,0,.1.2.1.4v2.3c0,.2,0,.3-.1.4,0,0-.2.1-.4.1h-.5v-3.4ZM49.7,5.2h.3c0,0,.2,0,.2,0,0,0,0-.1,0-.2v-2.4c0,0,0-.2,0-.2,0,0-.1,0-.2,0h-.3.1c0,0,0,3.1,0,3.1h-.1Z"/>
      <path class="st2" d="M51,2h.9v.2h-.7,0c0,0,0,1.3,0,1.3h0c0,0,.6,0,.6,0v.2h-.6,0c0,0,0,1.6,0,1.6h0c0,0,.8,0,.8,0v.2h-.9v-3.4h0ZM51.5,1.4h.3l-.3.3h-.3l.3-.3h0Z"/>
      <polygon class="st2" points="52 2 52.2 2 52.5 4.7 52.6 5.3 52.5 5.3 52.6 4.7 52.9 2 53.1 2 52.7 5.5 52.4 5.5 52 2"/>
      <polygon class="st2" points="53.4 2 54.2 2 54.2 2.3 53.5 2.3 53.6 2.2 53.6 3.6 53.5 3.5 54.1 3.5 54.1 3.7 53.5 3.7 53.6 3.6 53.6 5.3 53.5 5.2 54.3 5.2 54.3 5.5 53.4 5.5 53.4 2"/>
      <polygon class="st2" points="54.5 2 54.8 2 54.8 5.3 54.7 5.2 55.4 5.2 55.4 5.5 54.5 5.5 54.5 2"/>
      <path class="st2" d="M55.7,5.4c0,0-.1-.2-.1-.4v-2.4c0-.2,0-.3.1-.4s.2-.1.4-.1h0c.2,0,.3,0,.4.1s.1.2.1.4v2.4c0,.2,0,.3-.1.4,0,0-.2.1-.4.1h0c-.2,0-.3,0-.4-.1M56.3,5.2s0-.1,0-.2v-2.5c0,0,0-.2,0-.2s-.1,0-.2,0h0c0,0-.1,0-.2,0,0,0,0,.1,0,.2v2.5c0,0,0,.2,0,.2,0,0,.1,0,.2,0h0c0,0,.1,0,.2,0"/>
      <path class="st2" d="M57,2h.4c.2,0,.3,0,.4.1,0,0,.1.2.1.4v.8c0,.2,0,.3-.1.4,0,0-.2.1-.4.1h-.3,0c0,0,0,1.5,0,1.5h-.2v-3.4h0ZM57.1,3.7h.3c.2,0,.3,0,.3-.3v-.9c0-.2,0-.3-.3-.3h-.3,0c0,0,0,1.6,0,1.6h0c0,0,0-.1,0-.1Z"/>
      <path class="st2" d="M58.3,2h.5c.2,0,.3,0,.4.1,0,0,.1.2.1.4v.8c0,.2,0,.3-.1.4,0,0-.2.1-.4.1h-.3,0c0,0,0,1.5,0,1.5h-.2v-3.4h0ZM58.4,3.7h.3c.2,0,.3,0,.3-.3v-.9c0-.2,0-.3-.3-.3h-.3,0c0,0,0,1.6,0,1.6h0c0,0,0-.1,0-.1Z"/>
      <polygon class="st2" points="59.6 2 60.4 2 60.4 2.3 59.7 2.3 59.8 2.2 59.8 3.6 59.7 3.5 60.3 3.5 60.3 3.7 59.7 3.7 59.8 3.6 59.8 5.3 59.7 5.2 60.5 5.2 60.5 5.5 59.6 5.5 59.6 2"/>
      <polygon class="st2" points="60.7 2 61.1 2 61.4 4.6 61.5 5.3 61.4 5.3 61.5 4.6 61.8 2 62.2 2 62.2 5.5 61.9 5.5 61.9 3.6 61.9 2.4 61.9 2.4 61.8 3.6 61.6 5.5 61.3 5.5 61.1 3.6 61 2.4 61 2.4 61 3.6 61 5.5 60.7 5.5 60.7 2"/>
      <polygon class="st2" points="62.5 2 63.4 2 63.4 2.3 62.7 2.3 62.8 2.2 62.8 3.6 62.7 3.5 63.3 3.5 63.3 3.7 62.7 3.7 62.8 3.6 62.8 5.3 62.7 5.2 63.4 5.2 63.4 5.5 62.5 5.5 62.5 2"/>
      <polygon class="st2" points="63.7 2 64 2 64.4 3.9 64.6 5.2 64.6 5.2 64.5 3.9 64.5 2 64.8 2 64.8 5.5 64.4 5.5 64.1 3.6 63.9 2.3 63.9 2.3 64 3.6 64 5.5 63.7 5.5 63.7 2"/>
      <polygon class="st2" points="65.4 2.2 65.5 2.3 65 2.3 65 2 66.1 2 66.1 2.3 65.6 2.3 65.7 2.2 65.7 5.5 65.4 5.5 65.4 2.2"/>
      <path class="st2" d="M27,7.1h.5c.2,0,.3,0,.4.1,0,0,.1.2.1.4v2.3c0,.2,0,.3-.1.4s-.2.1-.4.1h-.5s0-3.4,0-3.4ZM27.1,10.3h.3c.1,0,.2,0,.2,0,0,0,0-.1,0-.2v-2.4c0,0,0-.2,0-.2,0,0-.1,0-.2,0h-.3.1c0,0,0,3.1,0,3.1h-.1Z"/>
      <polygon class="st2" points="28.4 7.1 29.3 7.1 29.3 7.3 28.5 7.3 28.6 7.2 28.6 8.7 28.5 8.6 29.1 8.6 29.1 8.8 28.5 8.8 28.6 8.7 28.6 10.4 28.5 10.3 29.3 10.3 29.3 10.5 28.4 10.5 28.4 7.1"/>
      <path class="st2" d="M29.7,10.4c0,0-.1-.2-.1-.4v-.8h.2v.9c0,0,0,.2,0,.2,0,0,.1,0,.2,0h0c0,0,.1,0,.2,0,0,0,0-.1,0-.2v-.4c0-.2,0-.3,0-.4,0-.1-.1-.2-.2-.4h0c0-.1-.2-.2-.2-.3,0,0-.1-.2-.1-.3,0-.1,0-.2,0-.4v-.2c0-.2,0-.3.1-.4s.2-.1.4-.1h0c.1,0,.3,0,.4.1,0,0,.1.2.1.4v.6h-.2v-.6c0,0,0-.2,0-.2s-.1,0-.2,0h0c0,0-.1,0-.2,0,0,0,0,.1,0,.2v.2c0,.1,0,.2,0,.3,0,0,0,.2.1.2s.1.1.2.3h0c0,.2.2.3.2.3,0,0,.1.2.1.3,0,.1,0,.2,0,.4v.4c0,.2,0,.3-.1.4s-.2.1-.4.1h0c-.1,0-.3,0-.4-.1"/>
      <path class="st2" d="M31.6,10.4c0,0-.1-.2-.1-.4v-2.4c0-.2,0-.3.1-.4s.2-.1.4-.1h0c.1,0,.3,0,.4.1,0,0,.1.2.1.4v.6h-.2v-.6c0,0,0-.2,0-.2s-.1,0-.2,0h0c0,0-.1,0-.2,0,0,0,0,.1,0,.2v2.5c0,0,0,.2,0,.2,0,0,.1,0,.2,0h0c0,0,.1,0,.2,0,0,0,0-.1,0-.2v-.9h.2v.8c0,.2,0,.3-.1.4s-.2.1-.4.1h0c-.1,0-.3,0-.4-.1"/>
      <path class="st2" d="M33,10.4c0,0-.1-.2-.1-.4v-2.4c0-.2,0-.3.1-.4s.2-.1.4-.1h0c.2,0,.3,0,.4.1s.1.2.1.4v2.4c0,.2,0,.3-.1.4,0,0-.2.1-.4.1h0c-.2,0-.3,0-.4-.1M33.5,10.3s0-.1,0-.2v-2.5c0,0,0-.2,0-.2,0,0-.1,0-.2,0h0c0,0-.1,0-.2,0,0,0,0,.1,0,.2v2.5c0,0,0,.2,0,.2s.1,0,.2,0h0c0,0,.1,0,.2,0"/>
      <path class="st2" d="M34.3,10.4c0,0-.1-.2-.1-.4v-2.4c0-.2,0-.3.1-.4s.2-.1.4-.1h0c.2,0,.3,0,.4.1s.1.2.1.4v2.4c0,.2,0,.3-.1.4,0,0-.2.1-.4.1h0c-.2,0-.3,0-.4-.1M34.9,10.3s0-.1,0-.2v-2.5c0,0,0-.2,0-.2,0,0-.1,0-.2,0h0c0,0-.1,0-.2,0,0,0,0,.1,0,.2v2.5c0,0,0,.2,0,.2s.1,0,.2,0h0c0,0,.1,0,.2,0"/>
      <path class="st2" d="M35.6,7.1h.5c.2,0,.3,0,.4.1,0,0,.1.2.1.4v.8c0,.2,0,.3-.1.4,0,0-.2.1-.4.1h-.3,0c0,0,0,1.5,0,1.5h-.2v-3.4h0ZM35.7,8.8h.3c.2,0,.3-.1.3-.3v-.9c0-.2,0-.3-.3-.3h-.3,0c0,0,0,1.5,0,1.5h0c0,0,0,0,0,0Z"/>
      <path class="st2" d="M36.9,7.1h.9v.2h-.7,0c0,0,0,1.3,0,1.3h0c0-.1.6-.1.6-.1v.2h-.6,0c0-.1,0,1.6,0,1.6h0c0,0,.8,0,.8,0v.2h-.9v-3.4h0ZM37.4,6.5h.3l-.3.3h-.3l.3-.3h0Z"/>
      <path class="st2" d="M38.5,8.8h-.4v-.2h.4c.2,0,.3-.1.3-.3v-.7c0-.2,0-.3-.3-.3h-.3.1c0-.1,0,3.2,0,3.2h-.2v-3.4h.5c.2,0,.3,0,.4.1,0,0,.1.2.1.4v.6c0,.1,0,.2,0,.3,0,0-.2.1-.3.2h0c.1,0,.2,0,.3,0,0,0,0,.2,0,.3v1.4h-.2v-1.4c0-.2,0-.3-.3-.3"/>
      <path class="st2" d="M39.7,7.1h.3l.4,3.4h-.2v-.9c0,0,0,0,0,0l-.2-1.7v-.7s0,0,0,0v.7s-.2,1.7-.2,1.7h0c0,0,0,1,0,1h-.2s.4-3.4.4-3.4ZM39.5,9.5h.7v.2h-.7v-.2Z"/>
      <polygon class="st2" points="40.9 7.2 41 7.3 40.4 7.3 40.4 7.1 41.6 7.1 41.6 7.3 41 7.3 41.1 7.2 41.1 10.5 40.9 10.5 40.9 7.2"/>
      <rect class="st2" x="41.8" y="7.1" width=".2" height="3.4"/>
      <path class="st2" d="M42.5,10.4c0,0-.1-.2-.1-.4v-2.4c0-.2,0-.3.1-.4s.2-.1.4-.1h0c.2,0,.3,0,.4.1s.1.2.1.4v2.4c0,.2,0,.3-.1.4,0,0-.2.1-.4.1h0c-.2,0-.3,0-.4-.1M43.1,10.3s0-.1,0-.2v-2.5c0,0,0-.2,0-.2,0,0-.1,0-.2,0h0c0,0-.1,0-.2,0,0,0,0,.1,0,.2v2.5c0,0,0,.2,0,.2s.1,0,.2,0h0c0,0,.1,0,.2,0"/>
      <polygon class="st2" points="43.8 7.1 44.1 7.1 44.5 9 44.6 10.3 44.6 10.3 44.6 9 44.6 7.1 44.8 7.1 44.8 10.5 44.5 10.5 44.2 8.6 44 7.4 44 7.4 44 8.6 44 10.5 43.8 10.5 43.8 7.1"/>
      <path class="st2" d="M45.3,10.4c0,0-.1-.2-.1-.4v-.8h.2v.9c0,0,0,.2,0,.2,0,0,.1,0,.2,0h0c0,0,.1,0,.2,0,0,0,0-.1,0-.2v-.4c0-.2,0-.3,0-.4,0-.1-.1-.2-.2-.4h0c0-.1-.2-.2-.2-.3,0,0,0-.2-.1-.3,0-.1,0-.2,0-.4v-.2c0-.2,0-.3.1-.4s.2-.1.4-.1h0c.2,0,.3,0,.4.1,0,0,.1.2.1.4v.6h-.2v-.6c0,0,0-.2,0-.2s-.1,0-.2,0h0c0,0-.1,0-.2,0,0,0,0,.1,0,.2v.2c0,.1,0,.2,0,.3,0,0,0,.2,0,.2,0,0,0,.1.2.3h0c0,.2.2.3.2.3,0,0,0,.2.1.3,0,.1,0,.2,0,.4v.4c0,.2,0,.3-.1.4s-.2.1-.4.1h0c-.2,0-.3,0-.4-.1"/>
      <polygon class="st2" points="47.4 7.2 47.5 7.3 47 7.3 47 7.1 48.1 7.1 48.1 7.3 47.6 7.3 47.7 7.2 47.7 10.5 47.4 10.5 47.4 7.2"/>
      <polygon class="st2" points="48.3 7.1 49.2 7.1 49.2 7.3 48.5 7.3 48.6 7.2 48.6 8.7 48.5 8.6 49.1 8.6 49.1 8.8 48.5 8.8 48.6 8.7 48.6 10.4 48.5 10.3 49.3 10.3 49.3 10.5 48.3 10.5 48.3 7.1"/>
      <path class="st2" d="M50,8.8h-.4v-.2h.4c.2,0,.3-.1.3-.3v-.7c0-.2,0-.3-.3-.3h-.3.1c0-.1,0,3.2,0,3.2h-.2v-3.4h.5c.2,0,.3,0,.4.1,0,0,.1.2.1.4v.6c0,.1,0,.2,0,.3,0,0-.2.1-.3.2h0c.1,0,.2,0,.3,0,0,0,0,.2,0,.3v1.4h-.2v-1.4c0-.2,0-.3-.3-.3"/>
      <path class="st2" d="M51.4,8.8h-.4v-.2h.4c.2,0,.3-.1.3-.3v-.7c0-.2,0-.3-.3-.3h-.3.1c0-.1,0,3.2,0,3.2h-.2v-3.4h.5c.2,0,.3,0,.4.1,0,0,.1.2.1.4v.6c0,.1,0,.2,0,.3,0,0-.2.1-.3.2h0c.1,0,.2,0,.3,0,0,0,0,.2,0,.3v1.4h-.2v-1.4c0-.2,0-.3-.3-.3"/>
      <rect class="st2" x="52.3" y="7.1" width=".2" height="3.4"/>
      <polygon class="st2" points="53.2 7.2 53.3 7.3 52.8 7.3 52.8 7.1 53.9 7.1 53.9 7.3 53.4 7.3 53.5 7.2 53.5 10.5 53.2 10.5 53.2 7.2"/>
      <path class="st2" d="M54.2,10.4c0,0-.1-.2-.1-.4v-2.4c0-.2,0-.3.1-.4s.2-.1.4-.1h0c.2,0,.3,0,.4.1s.1.2.1.4v2.4c0,.2,0,.3-.1.4,0,0-.2.1-.4.1h0c-.2,0-.3,0-.4-.1M54.8,10.3s0-.1,0-.2v-2.5c0,0,0-.2,0-.2,0,0-.1,0-.2,0h0c0,0-.1,0-.2,0,0,0,0,.1,0,.2v2.5c0,0,0,.2,0,.2s.1,0,.2,0h0c0,0,.1,0,.2,0"/>
      <path class="st2" d="M56,8.8h-.4v-.2h.4c.2,0,.3-.1.3-.3v-.7c0-.2,0-.3-.3-.3h-.3.1c0-.1,0,3.2,0,3.2h-.2v-3.4h.5c.2,0,.3,0,.4.1,0,0,.1.2.1.4v.6c0,.1,0,.2,0,.3,0,0-.2.1-.3.2h0c.1,0,.2,0,.3,0s0,.2,0,.3v1.4h-.2v-1.4c0-.2,0-.3-.3-.3"/>
      <rect class="st2" x="56.9" y="7.1" width=".2" height="3.4"/>
      <path class="st2" d="M57.8,7.1h.3l.4,3.4h-.2v-.9c0,0,0,0,0,0l-.2-1.7v-.7s0,0,0,0v.7s-.2,1.7-.2,1.7h0c0,0,0,1,0,1h-.2l.4-3.4h0ZM57.6,9.5h.7v.2h-.7v-.2Z"/>
      <polygon class="st2" points="58.8 7.1 59 7.1 59 10.4 58.9 10.3 59.6 10.3 59.6 10.5 58.8 10.5 58.8 7.1"/>
      <polygon class="st2" points="59.8 7.1 60.7 7.1 60.7 7.3 60 7.3 60.1 7.2 60.1 8.7 60 8.6 60.6 8.6 60.6 8.8 60 8.8 60.1 8.7 60.1 10.4 60 10.3 60.8 10.3 60.8 10.5 59.8 10.5 59.8 7.1"/>
      <path class="st2" d="M61.1,10.4c0,0-.1-.2-.1-.4v-.8h.2v.9c0,0,0,.2,0,.2,0,0,.1,0,.2,0h0c0,0,.1,0,.2,0,0,0,0-.1,0-.2v-.4c0-.2,0-.3,0-.4,0-.1-.1-.2-.2-.4h0c0-.1-.2-.2-.2-.3,0,0,0-.2-.1-.3,0-.1,0-.2,0-.4v-.2c0-.2,0-.3.1-.4s.2-.1.4-.1h0c.2,0,.3,0,.4.1,0,0,.1.2.1.4v.6h-.2v-.6c0,0,0-.2,0-.2s-.1,0-.2,0h0c0,0-.1,0-.2,0,0,0,0,.1,0,.2v.2c0,.1,0,.2,0,.3,0,0,0,.2,0,.2,0,0,0,.1.2.3h0c0,.2.2.3.2.3,0,0,0,.2.1.3,0,.1,0,.2,0,.4v.4c0,.2,0,.3-.1.4s-.2.1-.4.1h0c-.2,0-.3,0-.4-.1"/>
      <path class="st2" d="M22.7,1.1c0,.6-.5,1.1-1.1,1.1s-1.1-.5-1.1-1.1.5-1.1,1.1-1.1,1.1.5,1.1,1.1"/>
      <path class="st2" d="M19.8,13.5c0,.6-.5,1.1-1.1,1.1s-1.1-.5-1.1-1.1.5-1.1,1.1-1.1,1.1.5,1.1,1.1"/>
      <path class="st2" d="M5.4,13.1c-1.2,0-2.4.4-3.3,1.1l.2.2c.3.4.4.3.9.3.2,0,.4,0,.6.2l1.9,1.1c.2,0,.2.3.1.4,0,.1-.3.2-.4.1l-.7-.3c-.1,0-.5-.2-.3,0l.8.8h0c.6.6,1.2,1.2,1.9,1.9h0c-.5-.6-1-1-1.4-1.5-.1-.1-.1-.3,0-.4s.3-.1.4,0l1.9,1.9c.2.2,0-.2,0-.3l-.3-.7c0-.1,0-.3.1-.4.2,0,.3,0,.4.1l1.1,1.9c.1.2.2.4.2.6,0,.5,0,.5.4.9l.4.4c.4-.8.7-1.7.7-2.7,0-3-2.4-5.4-5.4-5.4"/>
      <path class="st2" d="M4.2,17h0c.2.3.4.4.5.6h0c.4.5.9.9,1.3,1.3h0c.1.1.2.2.3.3h0c-.6-.7-1.2-1.3-1.9-2h0c-.1-.1-.2-.2-.3-.3h0Z"/>
      <path class="st2" d="M5.2,19c-.3-.3-.6-.6-.9-.9h0c-.2-.2-.4-.4-.5-.5h0c.4.5.8.8,1.1,1.2.4.4.7.7,1.1,1.1h0c-.1-.2-.2-.3-.3-.4h0c-.2-.1-.3-.3-.4-.5"/>
      <path class="st2" d="M7.2,21.9c-.3-.1-.5-.3-.8-.5-.4-.4-.7-.7-1.1-1.1l-.5-.5h0c-.6-.6-1.1-1.1-1.7-1.7h0c.4.4.7.8,1.1,1.1.1.1.1.3,0,.4s-.3.1-.4,0l-1-1c-.4-.4-.7-.7-1.1-1.1-.2-.2-.4-.5-.5-.8,0-.1-.1-.5-.3-.6l-.2-.2C.2,16.7,0,17.6,0,18.5c0,3,2.4,5.4,5.4,5.4s2.3-.4,3.2-1l-.7-.7c-.2-.2-.5-.2-.7-.3"/>
      <path class="st1" d="M5.2,19c-.3-.3-.6-.6-.9-.9h0c.3.3.6.6.9.9"/>
      <path class="st1" d="M9.3,19.9c0-.2,0-.4-.2-.6l-1.1-1.9c0-.1-.3-.2-.4-.1-.2,0-.2.3-.1.4l.3.7c0,.1.2.5,0,.3l-1.9-1.9c-.1-.1-.3-.1-.4,0s-.1.3,0,.4c.5.5,1,1,1.4,1.4h0c0,0,0,0,0,0-.6-.6-1.2-1.2-1.9-1.9h0l1.1,1.1c.1.1.1.3,0,.4s-.3.1-.4,0c-.4-.4-.7-.7-1.1-1.1h0c.6.6,1.2,1.2,1.9,1.9h0c0,0,0,0,0,0-.1-.1-.2-.2-.3-.3.1.1.1.3,0,.4s-.3.1-.4,0c.1.1.2.2.3.3h0c0,0,0,0,0,0-.4-.4-.7-.7-1.1-1.1.2.2.3.4.5.5.1.1.1.3,0,.4s-.3.1-.4,0l.5.5c.4.4.7.7,1.1,1.1.2.2.5.4.8.5.2,0,.5.1.7.3l.7.7c.6-.5,1.1-1,1.5-1.7l-.4-.4c-.4-.4-.3-.4-.4-.9"/>
      <path class="st1" d="M6.1,19c-.4-.4-.9-.9-1.3-1.3h0c.4.4.9.9,1.3,1.3"/>
      <path class="st2" d="M5.6,19.4h0c-.2-.1-.3-.3-.4-.5.2.1.3.3.4.5"/>
      <path class="st0" d="M1.2,16.8c.1.3.3.5.5.8.4.4.7.7,1.1,1.1l1,1c.1.1.3.1.4,0s.1-.3,0-.4c-.4-.4-.7-.7-1.1-1.1h0c0,0,0,0,0,0,.5.5,1.1,1.1,1.7,1.7h0l-.5-.5c-.1-.1-.1-.3,0-.4s.3-.1.4,0c-.4-.4-.8-.8-1.1-1.1h0c0,0,0,0,0,0,.2.2.4.4.5.5-.1-.1-.1-.3,0-.4.1-.1.3-.1.4,0-.2-.2-.4-.4-.5-.5h0c0,0,0,0,0,0,.1.1.2.2.3.3-.1-.1-.1-.3,0-.4.1-.1.3-.1.4,0l-.8-.8c-.2-.2.2,0,.3,0l.7.3c.2,0,.3,0,.4-.1s0-.3-.1-.4l-1.9-1.1c-.2-.1-.4-.2-.6-.2-.5,0-.5,0-.9-.3l-.2-.2c-.6.5-1.1,1-1.5,1.7l.2.2c.2.2.2.5.3.6"/>
      <path class="st0" d="M4.4,18.8c-.1.1-.1.3,0,.4l.5.5c.1.1.3.1.4,0,.1-.1.1-.3,0-.4-.2-.2-.3-.4-.5-.5-.1-.1-.3-.1-.4,0"/>
      <path class="st0" d="M4.6,16.9c-.1.1-.1.3,0,.4.4.4.7.7,1.1,1.1.1.1.3.1.4,0s.1-.3,0-.4l-1.1-1.1c-.1-.1-.3-.1-.4,0"/>
      <path class="st0" d="M4.7,17.7c-.1-.1-.3-.1-.4,0-.1.1-.1.3,0,.4.3.3.6.6.9.9.2.1.3.3.4.5.1.1.3.1.4,0,.1-.1.1-.3,0-.4h0c-.5-.5-.9-.9-1.3-1.3"/>
    </g>
  </g>
</svg>