<?xml version="1.0" encoding="UTF-8"?>
<svg id="Ebene_1" xmlns="http://www.w3.org/2000/svg" version="1.1" viewBox="0 0 479.999 111.146">
  <!-- Generator: Adobe Illustrator 29.6.0, SVG Export Plug-In . SVG Version: 2.1.1 Build 207)  -->
  <g id="Calque_2">
    <g id="Calque_1-2">
      <path d="M32.145,79.818l-14.983,14.983-14.983-14.983c-1.362-1.634-2.179-3.541-2.179-5.448v-18.797h8.718v16.072c.272,1.09.544,1.907,1.362,2.725l7.082,7.083,7.083-7.083c.817-.817,1.09-1.635,1.362-2.725v-16.072h8.717v18.797c.273,1.907-.817,4.086-2.179,5.448" fill="#fff"/>
      <path d="M46.039,55.573h8.718v37.049h-8.718v-37.049ZM47.4,46.311q-1.362,0-1.362-1.362v-6.538q0-1.362,1.362-1.362h5.993q1.363,0,1.363,1.362v6.81q0,1.362-1.363,1.362l-5.993-.272Z" fill="#fff"/>
      <path d="M180.613,92.622v-7.9h-19.886q-1.362,0-1.362-1.361v-5.993h21.248v-17.163c0-2.451-1.634-4.358-4.086-4.631h-21.249c-2.452-.272-4.359,1.635-4.631,4.086v28.332c0,2.451,1.635,4.358,4.086,4.631h25.879M172.713,69.467q0,1.361-1.362,1.361h-10.624q-1.362,0-1.362-1.361v-5.993q0-1.362,1.362-1.362h10.624q1.362,0,1.362,1.362v5.993Z" fill="#fff"/>
      <path d="M479.999,92.622v-7.9h-20.158q-1.362,0-1.362-1.361v-5.993h21.52v-17.163c0-2.451-1.635-4.358-4.087-4.631h-21.52c-2.451-.272-4.358,1.635-4.631,4.086v28.332c0,2.451,1.635,4.358,4.086,4.631h26.152M472.1,69.467q0,1.361-1.363,1.361h-10.623q-1.363,0-1.363-1.361v-5.993q0-1.362,1.363-1.362h10.623q1.363,0,1.363,1.362v5.993Z" fill="#fff"/>
      <path d="M219.841,92.622h-22.611c-2.451,0-4.63-1.635-4.63-4.086v-32.963h8.99v27.787q0,1.361,1.362,1.361h11.441q1.362,0,1.362-1.361v-27.787h8.717v32.418c0,2.451-1.907,4.358-4.358,4.631h-.272" fill="#fff"/>
      <path d="M259.07,75.187v-10.353q0-1.361-1.635-1.361h-11.169q-1.362,0-1.362,1.361v27.787h-8.718v-37.049h27.242c2.451.272,4.358,2.18,4.631,4.631v14.983h-8.989" fill="#fff"/>
      <path d="M304.291,92.622c2.452,0,4.631-1.635,4.631-4.086v-28.332c.273-2.451-1.635-4.358-4.087-4.631h-19.886v-15.8h-8.717v52.849h28.059M299.932,64.835v18.525q0,1.361-1.362,1.361h-12.259q-1.362,0-1.362-1.361v-18.525q0-1.361,1.362-1.361h12.259q1.362,0,1.362,1.361" fill="#fff"/>
      <path d="M325.54,92.622h25.606v-32.418c0-2.451-1.634-4.631-4.086-4.631h-26.152v7.9h19.887q1.361,0,1.361,1.361v4.904h-16.616c-2.452-.272-4.632,1.635-4.632,4.086v14.166c0,2.451,1.635,4.631,4.086,4.631h.546M342.156,84.177q0,1.362-1.361,1.362h-10.625q-1.361,0-1.361-1.362v-5.992q0-1.363,1.361-1.363h10.625q1.361,0,1.361,1.363v5.992Z" fill="#fff"/>
      <path d="M386.016,92.622v-27.787q0-1.361-1.362-1.361h-12.804v29.148h-8.718v-37.049h27.242c2.452,0,4.358,1.635,4.631,4.086v32.963h-8.989" fill="#fff"/>
      <path d="M429.331,92.622v-27.787q0-1.361-1.362-1.361h-12.804v29.148h-8.718v-37.049h27.242c2.452-.272,4.631,1.635,4.631,4.086v32.963h-8.989" fill="#fff"/>
      <rect x="69.739" width="25.334" height="111.146" fill="#fff"/>
      <rect x="112.781" width="25.607" height="111.146" fill="#fff"/>
    </g>
  </g>
</svg>